<svg width="3871" height="3049" viewBox="0 0 3871 3049" fill="none" xmlns="http://www.w3.org/2000/svg">
<path d="M2012.73 2448.07C2564.29 2448.07 3011.42 2000.97 3011.42 1449.44C3011.42 897.906 2564.29 450.802 2012.73 450.802C1461.17 450.802 1014.05 897.906 1014.05 1449.44C1014.05 2000.97 1461.17 2448.07 2012.73 2448.07Z" fill="#DBE8EC"/>
<path d="M2028.86 1164.27C2183.31 1164.27 2308.52 1039.07 2308.52 884.626C2308.52 730.184 2183.31 604.984 2028.86 604.984C1874.41 604.984 1749.21 730.184 1749.21 884.626C1749.21 1039.07 1874.41 1164.27 2028.86 1164.27Z" fill="#F9AE2B"/>
<path d="M2499.28 696.383H2691.66" stroke="#3086A3" stroke-width="3" stroke-miterlimit="10" stroke-linecap="round"/>
<path d="M2499.28 751.828H2691.66" stroke="#3086A3" stroke-width="3" stroke-miterlimit="10" stroke-linecap="round"/>
<path d="M2499.28 807.272H2691.66" stroke="#3086A3" stroke-width="3" stroke-miterlimit="10" stroke-linecap="round"/>
<path d="M709.604 1749.37H901.98" stroke="#3086A3" stroke-width="3" stroke-miterlimit="10" stroke-linecap="round"/>
<path d="M709.604 1804.82H901.98" stroke="#3086A3" stroke-width="3" stroke-miterlimit="10" stroke-linecap="round"/>
<path d="M709.604 1860.26H901.98" stroke="#3086A3" stroke-width="3" stroke-miterlimit="10" stroke-linecap="round"/>
<path d="M2868.35 2144.76H3060.73" stroke="#3086A3" stroke-width="3" stroke-miterlimit="10" stroke-linecap="round"/>
<path d="M2868.35 2200.2H3060.73" stroke="#3086A3" stroke-width="3" stroke-miterlimit="10" stroke-linecap="round"/>
<path d="M2868.35 2255.65H3060.73" stroke="#3086A3" stroke-width="3" stroke-miterlimit="10" stroke-linecap="round"/>
<path d="M3100.24 1871.7C3145.65 1871.7 3182.46 1834.89 3182.46 1789.48C3182.46 1744.07 3145.65 1707.25 3100.24 1707.25C3054.82 1707.25 3018.01 1744.07 3018.01 1789.48C3018.01 1834.89 3054.82 1871.7 3100.24 1871.7Z" fill="#B9D4DB"/>
<path d="M2883.25 1891.45C2906.79 1891.45 2925.88 1872.36 2925.88 1848.82C2925.88 1825.27 2906.79 1806.18 2883.25 1806.18C2859.7 1806.18 2840.61 1825.27 2840.61 1848.82C2840.61 1872.36 2859.7 1891.45 2883.25 1891.45Z" fill="#B9D4DB"/>
<path d="M2991.51 1649.19C3025.15 1649.19 3052.42 1621.92 3052.42 1588.28C3052.42 1554.65 3025.15 1527.38 2991.51 1527.38C2957.87 1527.38 2930.6 1554.65 2930.6 1588.28C2930.6 1621.92 2957.87 1649.19 2991.51 1649.19Z" fill="#B9D4DB"/>
<path d="M1229.15 2418.37C1283.18 2418.37 1326.98 2374.57 1326.98 2320.54C1326.98 2266.51 1283.18 2222.71 1229.15 2222.71C1175.11 2222.71 1131.31 2266.51 1131.31 2320.54C1131.31 2374.57 1175.11 2418.37 1229.15 2418.37Z" fill="#B9D4DB"/>
<path d="M1042.2 2301.82C1070.34 2301.82 1093.16 2279 1093.16 2250.86C1093.16 2222.72 1070.34 2199.9 1042.2 2199.9C1014.05 2199.9 991.237 2222.72 991.237 2250.86C991.237 2279 1014.05 2301.82 1042.2 2301.82Z" fill="#B9D4DB"/>
<path d="M1089.01 2107.03C1105.24 2107.03 1118.4 2093.87 1118.4 2077.64C1118.4 2061.41 1105.24 2048.25 1089.01 2048.25C1072.77 2048.25 1059.61 2061.41 1059.61 2077.64C1059.61 2093.87 1072.77 2107.03 1089.01 2107.03Z" fill="#B9D4DB"/>
<path d="M1251.73 2168.9C1290.65 2168.9 1322.2 2137.35 1322.2 2098.44C1322.2 2059.52 1290.65 2027.97 1251.73 2027.97C1212.81 2027.97 1181.26 2059.52 1181.26 2098.44C1181.26 2137.35 1212.81 2168.9 1251.73 2168.9Z" fill="#B9D4DB"/>
<path d="M1300.79 949.758C1354.83 949.758 1398.63 905.958 1398.63 851.928C1398.63 797.898 1354.83 754.098 1300.79 754.098C1246.76 754.098 1202.96 797.898 1202.96 851.928C1202.96 905.958 1246.76 949.758 1300.79 949.758Z" fill="#B9D4DB"/>
<path d="M1304.76 703.422C1332.91 703.422 1355.73 680.607 1355.73 652.464C1355.73 624.32 1332.91 601.506 1304.76 601.506C1276.62 601.506 1253.8 624.32 1253.8 652.464C1253.8 680.607 1276.62 703.422 1304.76 703.422Z" fill="#B9D4DB"/>
<path d="M1644.19 726.341C1668.55 726.341 1688.3 706.595 1688.3 682.237C1688.3 657.879 1668.55 638.133 1644.19 638.133C1619.83 638.133 1600.08 657.879 1600.08 682.237C1600.08 706.595 1619.83 726.341 1644.19 726.341Z" fill="#B9D4DB"/>
<path d="M1483.73 668.773C1499.96 668.773 1513.12 655.613 1513.12 639.379C1513.12 623.145 1499.96 609.985 1483.73 609.985C1467.49 609.985 1454.33 623.145 1454.33 639.379C1454.33 655.613 1467.49 668.773 1483.73 668.773Z" fill="#B9D4DB"/>
<path d="M1517.89 870.288C1556.81 870.288 1588.36 838.741 1588.36 799.824C1588.36 760.908 1556.81 729.36 1517.89 729.36C1478.97 729.36 1447.42 760.908 1447.42 799.824C1447.42 838.741 1478.97 870.288 1517.89 870.288Z" fill="#B9D4DB"/>
<path d="M2863.69 1388.98H1206.69L1152.66 1252.01H2863.69C2865.82 1252.01 2867.93 1252.43 2869.9 1253.25C2871.86 1254.06 2873.65 1255.25 2875.16 1256.76C2876.66 1258.26 2877.86 1260.05 2878.67 1262.02C2879.48 1263.98 2879.9 1266.09 2879.9 1268.22V1372.77C2879.9 1374.9 2879.48 1377.01 2878.67 1378.98C2877.85 1380.94 2876.66 1382.73 2875.16 1384.23C2873.65 1385.74 2871.86 1386.93 2869.9 1387.75C2867.93 1388.56 2865.82 1388.98 2863.69 1388.98V1388.98Z" fill="#409CB5"/>
<path d="M2622.29 2108.63H1495.56C1490.06 2108.63 1484.69 2106.95 1480.17 2103.82C1475.65 2100.69 1472.2 2096.26 1470.26 2091.11L1206.69 1388.98H2805.99L2648.65 2087.55C2647.3 2093.53 2643.95 2098.88 2639.16 2102.71C2634.37 2106.54 2628.42 2108.63 2622.29 2108.63V2108.63Z" fill="#F9AE2B"/>
<path d="M2724.96 1748.82C2609.69 1756.21 2494.43 1760.08 2379.16 1762.71C2321.53 1764.36 2263.89 1764.72 2206.26 1765.69L2033.36 1766.68C1918.09 1766.78 1802.83 1765.48 1687.56 1762.76C1572.29 1760.15 1457.03 1756.26 1341.76 1748.82C1457.03 1741.38 1572.29 1737.5 1687.56 1734.88C1802.83 1732.29 1918.09 1730.99 2033.36 1730.97L2206.26 1731.95C2263.89 1732.92 2321.53 1733.29 2379.16 1734.93C2494.43 1737.56 2609.69 1741.43 2724.96 1748.82Z" fill="#3086A3"/>
<path d="M2499.5 1388.98C2492.93 1451.78 2482.89 1513.8 2471.82 1575.59C2460.59 1637.34 2448.07 1698.8 2434.24 1759.97C2420.49 1821.15 2405.47 1882.05 2389.19 1942.66C2380.97 1972.95 2372.46 2003.17 2363.37 2033.26C2358.67 2048.27 2354.2 2063.34 2349.31 2078.31L2345.55 2089.68C2344.07 2093.85 2341.66 2097.64 2338.51 2100.75C2335.55 2103.68 2331.98 2105.9 2328.05 2107.27C2324.12 2108.63 2319.93 2109.1 2315.8 2108.63C2319.53 2108.19 2323.13 2106.94 2326.33 2104.98C2329.54 2103.02 2332.28 2100.39 2334.38 2097.26C2336.33 2094.39 2337.62 2091.11 2338.15 2087.67L2339.65 2076.13C2341.65 2060.51 2344.07 2044.99 2346.26 2029.41C2350.95 1998.33 2356.22 1967.37 2361.78 1936.48C2373 1874.73 2385.54 1813.28 2399.4 1752.12C2413.2 1690.94 2428.23 1630.05 2444.5 1569.43C2460.98 1508.87 2478.5 1448.53 2499.5 1388.98Z" fill="#3086A3"/>
<path d="M1855.61 2108.63C1851.31 2109.1 1846.96 2108.55 1842.91 2107.05C1838.85 2105.54 1835.2 2103.11 1832.25 2099.95C1829.35 2096.62 1827.02 2092.83 1825.36 2088.74L1820.02 2077.68C1812.91 2062.93 1806.2 2048.03 1799.27 2033.22C1785.71 2003.48 1772.69 1973.53 1759.95 1943.47C1734.57 1883.33 1710.44 1822.72 1687.56 1761.64C1664.61 1700.59 1642.88 1639.08 1622.36 1577.11C1602.02 1515.08 1582.7 1452.66 1566.75 1388.98C1596.64 1447.43 1623.17 1507.14 1648.67 1567.24C1674.04 1627.38 1698.16 1688 1721.01 1749.09C1743.91 1810.16 1765.63 1871.68 1786.16 1933.64C1796.34 1964.65 1806.25 1995.76 1815.61 2027.09C1820.14 2042.8 1824.9 2058.43 1829.24 2074.22L1832.5 2086.06C1833.24 2089.77 1834.58 2093.35 1836.47 2096.63C1838.56 2099.94 1841.36 2102.74 1844.67 2104.82C1847.99 2106.89 1851.73 2108.2 1855.61 2108.63Z" fill="#3086A3"/>
<path d="M1775.33 2660.74C1836.98 2660.74 1886.95 2610.76 1886.95 2549.12C1886.95 2487.47 1836.98 2437.5 1775.33 2437.5C1713.68 2437.5 1663.71 2487.47 1663.71 2549.12C1663.71 2610.76 1713.68 2660.74 1775.33 2660.74Z" fill="#409CB5"/>
<path d="M1775.33 2600.63C1803.78 2600.63 1826.85 2577.57 1826.85 2549.12C1826.85 2520.67 1803.78 2497.6 1775.33 2497.6C1746.88 2497.6 1723.81 2520.67 1723.81 2549.12C1723.81 2577.57 1746.88 2600.63 1775.33 2600.63Z" fill="#DBE8EC"/>
<path d="M2419.22 2660.74C2480.87 2660.74 2530.84 2610.76 2530.84 2549.12C2530.84 2487.47 2480.87 2437.5 2419.22 2437.5C2357.57 2437.5 2307.59 2487.47 2307.59 2549.12C2307.59 2610.76 2357.57 2660.74 2419.22 2660.74Z" fill="#409CB5"/>
<path d="M2419.22 2600.63C2447.67 2600.63 2470.74 2577.57 2470.74 2549.12C2470.74 2520.67 2447.67 2497.6 2419.22 2497.6C2390.77 2497.6 2367.7 2520.67 2367.7 2549.12C2367.7 2577.57 2390.77 2600.63 2419.22 2600.63Z" fill="#DBE8EC"/>
<path d="M2043.25 1388.98C2054.2 1448.51 2061.6 1508.25 2067.94 1568.06C2074.13 1627.88 2078.99 1687.77 2082.52 1747.74C2086.12 1807.71 2088.42 1867.76 2089.43 1927.88C2090.25 1988.02 2089.98 2048.22 2086.13 2108.63C2075.13 2049.1 2067.71 1989.36 2061.38 1929.55C2055.2 1869.74 2050.35 1809.84 2046.86 1749.87C2043.3 1689.9 2041.02 1629.85 2039.99 1569.73C2039.18 1509.59 2039.44 1449.39 2043.25 1388.98Z" fill="#3086A3"/>
<path d="M2608.09 2380.85H1598.33C1594.72 2380.85 1591.19 2379.75 1588.21 2377.7C1585.23 2375.66 1582.94 2372.75 1581.65 2369.38L996.841 845.014H687.079C682.341 845.014 677.797 843.131 674.446 839.781C671.095 836.431 669.213 831.887 669.213 827.148C669.213 822.41 671.095 817.866 674.446 814.516C677.797 811.165 682.341 809.283 687.079 809.283H1009.12C1012.74 809.283 1016.27 810.38 1019.24 812.427C1022.22 814.475 1024.51 817.377 1025.8 820.751L1610.61 2345.12H2608.09C2612.83 2345.12 2617.37 2347 2620.72 2350.35C2624.07 2353.7 2625.95 2358.24 2625.95 2362.98C2625.95 2367.72 2624.07 2372.27 2620.72 2375.62C2617.37 2378.97 2612.83 2380.85 2608.09 2380.85V2380.85Z" fill="#409CB5"/>
<path d="M842.435 775.637H630.423C623.845 775.637 618.513 780.97 618.513 787.547V873.062C618.513 879.64 623.845 884.972 630.423 884.972H842.435C849.013 884.972 854.346 879.64 854.346 873.062V787.547C854.346 780.97 849.013 775.637 842.435 775.637Z" fill="#409CB5"/>
<g clip-path="url(#clip0_1_103)">
<path d="M2805.37 1216.74C2837.51 1219.5 2891.12 1228.83 2941.55 1264.97C3001.93 1308.25 3024.04 1365.81 3063.26 1472.25C3109.39 1597.45 3132.46 1660.06 3106.65 1693.99C3069.03 1743.44 2950.34 1732.86 2819.83 1672.3C2811.71 1565.47 2815 1649.02 2805.37 1216.74Z" fill="white"/>
<path d="M3019.15 1729.53C2965.18 1729.53 2894.62 1711.41 2818.15 1675.93C2817.5 1675.63 2816.95 1675.16 2816.54 1674.58C2816.14 1673.99 2815.9 1673.31 2815.84 1672.6C2807.71 1565.61 2811.01 1649.29 2801.37 1216.83C2801.36 1216.27 2801.46 1215.71 2801.68 1215.19C2801.9 1214.67 2802.22 1214.21 2802.63 1213.82C2803.04 1213.44 2803.53 1213.15 2804.06 1212.96C2804.59 1212.78 2805.15 1212.71 2805.71 1212.76C2858.37 1217.28 2904.86 1233.76 2943.87 1261.72C3006.5 1306.6 3029.27 1368.43 3067.02 1470.87C3113.6 1597.29 3136.97 1660.74 3109.83 1696.41C3092.95 1718.6 3061.04 1729.53 3019.15 1729.53ZM2823.64 1669.65C2953.05 1729.23 3067.93 1738.28 3103.46 1691.57C3127.95 1659.39 3105.07 1597.31 3059.52 1473.65C3019.21 1364.25 2997.26 1309.82 2939.22 1268.22C2902.48 1241.9 2858.85 1226.06 2809.47 1221.14C2818.91 1645.08 2815.78 1566.85 2823.64 1669.65Z" fill="#090817"/>
<path d="M2958.94 1540.87C2950.22 1371.87 2960.69 1311.92 2913.88 1265.26C2895.94 1247.38 2872.63 1234.48 2846.62 1226.5C2837.12 1223.63 2828.8 1217.77 2822.88 1209.81C2816.96 1201.85 2813.76 1192.19 2813.74 1182.27V1166.43C2843.58 1152.35 2867.91 1135.78 2890.17 1108.16C2903.13 1092.42 2913.42 1074.65 2920.63 1055.58L2920.61 1055.51C2972.81 920.877 2867.26 775.539 2720.94 786.458C2641.79 752.566 2560.23 807.396 2542.02 888.168C2535.44 916.982 2530.72 946.187 2527.87 975.605C2525.1 974.995 2522.23 974.995 2519.45 975.606C2516.68 976.217 2514.07 977.425 2511.81 979.145C2509.55 980.864 2507.69 983.056 2506.36 985.566C2505.03 988.076 2504.27 990.846 2504.12 993.682C2503.96 996.518 2504.43 999.354 2505.49 1001.99C2506.54 1004.63 2508.16 1007.01 2510.22 1008.96C2512.28 1010.91 2514.75 1012.38 2517.44 1013.29C2520.13 1014.19 2522.99 1014.5 2525.81 1014.19C2525.31 1059.7 2532.27 1104.85 2554.7 1136.63C2580.87 1173.7 2635.66 1193.02 2695.64 1192.76V1209.31C2695.6 1215.44 2693.78 1221.43 2690.42 1226.54C2687.05 1231.66 2682.27 1235.7 2676.65 1238.16C2658.25 1246.28 2641.19 1257.13 2626.03 1270.36C2591.63 1300.77 2572.17 1341.83 2550.94 1464.31C2534.4 1559.73 2518.1 1697.03 2523.41 1867.52L2990.95 1854.76C2974.99 1750.74 2964.3 1645.98 2958.94 1540.87V1540.87Z" fill="white"/>
<path d="M1747.56 517.988C1756.78 517.988 1764.27 510.506 1764.27 501.276C1764.27 492.046 1756.78 484.564 1747.56 484.564C1738.33 484.564 1730.84 492.046 1730.84 501.276C1730.84 510.506 1738.33 517.988 1747.56 517.988Z" fill="white"/>
<path d="M1672.08 517.988C1681.31 517.988 1688.79 510.506 1688.79 501.276C1688.79 492.046 1681.31 484.564 1672.08 484.564C1662.85 484.564 1655.37 492.046 1655.37 501.276C1655.37 510.506 1662.85 517.988 1672.08 517.988Z" fill="white"/>
<path d="M1596.61 517.988C1605.84 517.988 1613.32 510.506 1613.32 501.276C1613.32 492.046 1605.84 484.564 1596.61 484.564C1587.38 484.564 1579.9 492.046 1579.9 501.276C1579.9 510.506 1587.38 517.988 1596.61 517.988Z" fill="white"/>
<path d="M2098.7 620.544H1877.12C1874.47 620.544 1871.93 619.49 1870.05 617.615C1868.17 615.74 1867.12 613.196 1867.12 610.544C1867.12 607.892 1868.17 605.348 1870.05 603.473C1871.93 601.598 1874.47 600.544 1877.12 600.544H2098.7C2101.35 600.544 2103.9 601.598 2105.77 603.473C2107.65 605.348 2108.7 607.892 2108.7 610.544C2108.7 613.196 2107.65 615.74 2105.77 617.615C2103.9 619.49 2101.35 620.544 2098.7 620.544Z" fill="#080717"/>
<path d="M2098.7 687.256H1948.6C1945.95 687.256 1943.4 686.202 1941.53 684.327C1939.65 682.452 1938.6 679.908 1938.6 677.256C1938.6 674.604 1939.65 672.06 1941.53 670.185C1943.4 668.31 1945.95 667.256 1948.6 667.256H2098.7C2101.35 667.256 2103.9 668.31 2105.77 670.185C2107.65 672.06 2108.7 674.604 2108.7 677.256C2108.7 679.908 2107.65 682.452 2105.77 684.327C2103.9 686.202 2101.35 687.256 2098.7 687.256Z" fill="#080717"/>
<path d="M2098.7 753.968H1861.4C1858.75 753.968 1856.2 752.914 1854.33 751.039C1852.45 749.164 1851.4 746.62 1851.4 743.968C1851.4 741.316 1852.45 738.772 1854.33 736.897C1856.2 735.022 1858.75 733.968 1861.4 733.968H2098.7C2101.35 733.968 2103.9 735.022 2105.77 736.897C2107.65 738.772 2108.7 741.316 2108.7 743.968C2108.7 746.62 2107.65 749.164 2105.77 751.039C2103.9 752.914 2101.35 753.968 2098.7 753.968Z" fill="#080717"/>
<path d="M2098.7 820.679H1777.4C1774.75 820.679 1772.2 819.625 1770.33 817.75C1768.45 815.875 1767.4 813.331 1767.4 810.679C1767.4 808.027 1768.45 805.483 1770.33 803.608C1772.2 801.732 1774.75 800.679 1777.4 800.679H2098.7C2101.35 800.679 2103.9 801.732 2105.77 803.608C2107.65 805.483 2108.7 808.027 2108.7 810.679C2108.7 813.331 2107.65 815.875 2105.77 817.75C2103.9 819.625 2101.35 820.679 2098.7 820.679Z" fill="#080717"/>
<path d="M1907.14 887.391H1651.2C1648.55 887.391 1646 886.337 1644.13 884.462C1642.25 882.587 1641.2 880.043 1641.2 877.391C1641.2 874.739 1642.25 872.195 1644.13 870.32C1646 868.445 1648.55 867.391 1651.2 867.391H1907.14C1909.79 867.391 1912.34 868.445 1914.21 870.32C1916.09 872.195 1917.14 874.739 1917.14 877.391C1917.14 880.043 1916.09 882.587 1914.21 884.462C1912.34 886.337 1909.79 887.391 1907.14 887.391V887.391Z" fill="#080717"/>
<path d="M2098.7 887.391H1960.03C1957.38 887.391 1954.84 886.337 1952.96 884.462C1951.09 882.587 1950.03 880.043 1950.03 877.391C1950.03 874.739 1951.09 872.195 1952.96 870.32C1954.84 868.445 1957.38 867.391 1960.03 867.391H2098.7C2101.35 867.391 2103.9 868.445 2105.77 870.32C2107.65 872.195 2108.7 874.739 2108.7 877.391C2108.7 880.043 2107.65 882.587 2105.77 884.462C2103.9 886.337 2101.35 887.391 2098.7 887.391V887.391Z" fill="#080717"/>
<path d="M1802.15 954.1H1651.2C1648.55 954.1 1646 953.046 1644.13 951.171C1642.25 949.296 1641.2 946.752 1641.2 944.1C1641.2 941.448 1642.25 938.904 1644.13 937.029C1646 935.154 1648.55 934.1 1651.2 934.1H1802.15C1804.8 934.1 1807.34 935.154 1809.22 937.029C1811.09 938.904 1812.15 941.448 1812.15 944.1C1812.15 946.752 1811.09 949.296 1809.22 951.171C1807.34 953.046 1804.8 954.1 1802.15 954.1V954.1Z" fill="#080717"/>
<path d="M2098.7 954.1H1861.4C1858.75 954.1 1856.2 953.046 1854.33 951.171C1852.45 949.296 1851.4 946.752 1851.4 944.1C1851.4 941.448 1852.45 938.904 1854.33 937.029C1856.2 935.154 1858.75 934.1 1861.4 934.1H2098.7C2101.35 934.1 2103.9 935.154 2105.77 937.029C2107.65 938.904 2108.7 941.448 2108.7 944.1C2108.7 946.752 2107.65 949.296 2105.77 951.171C2103.9 953.046 2101.35 954.1 2098.7 954.1V954.1Z" fill="#080717"/>
<path d="M1726.68 1020.81H1651.2C1648.55 1020.81 1646 1019.76 1644.13 1017.89C1642.25 1016.01 1641.2 1013.47 1641.2 1010.81C1641.2 1008.16 1642.25 1005.62 1644.13 1003.74C1646 1001.87 1648.55 1000.81 1651.2 1000.81H1726.68C1729.33 1000.81 1731.87 1001.87 1733.75 1003.74C1735.62 1005.62 1736.68 1008.16 1736.68 1010.81C1736.68 1013.47 1735.62 1016.01 1733.75 1017.89C1731.87 1019.76 1729.33 1020.81 1726.68 1020.81H1726.68Z" fill="#080717"/>
<path d="M2098.7 1020.81H1777.4C1774.75 1020.81 1772.2 1019.76 1770.33 1017.89C1768.45 1016.01 1767.4 1013.47 1767.4 1010.81C1767.4 1008.16 1768.45 1005.62 1770.33 1003.74C1772.2 1001.87 1774.75 1000.81 1777.4 1000.81H2098.7C2101.35 1000.81 2103.9 1001.87 2105.77 1003.74C2107.65 1005.62 2108.7 1008.16 2108.7 1010.81C2108.7 1013.47 2107.65 1016.01 2105.77 1017.89C2103.9 1019.76 2101.35 1020.81 2098.7 1020.81V1020.81Z" fill="#080717"/>
<path d="M2038.48 1038.18C2112.48 1038.18 2172.46 978.201 2172.46 904.211C2172.46 830.221 2112.48 770.24 2038.48 770.24C1964.49 770.24 1904.51 830.221 1904.51 904.211C1904.51 978.201 1964.49 1038.18 2038.48 1038.18Z" fill="#6556FF"/>
<path d="M2038.48 839.778C2069.9 839.778 2095.37 814.311 2095.37 782.897C2095.37 751.482 2069.9 726.016 2038.48 726.016C2007.07 726.016 1981.6 751.482 1981.6 782.897C1981.6 814.311 2007.07 839.778 2038.48 839.778Z" fill="#6556FF"/>
<path d="M2209.11 927.472H1859.21C1856.03 927.472 1852.98 926.208 1850.73 923.957C1848.48 921.707 1847.21 918.655 1847.21 915.472C1847.21 912.289 1848.48 909.237 1850.73 906.987C1852.98 904.736 1856.03 903.472 1859.21 903.472H2209.11C2212.3 903.472 2215.35 904.736 2217.6 906.987C2219.85 909.237 2221.11 912.289 2221.11 915.472C2221.11 918.655 2219.85 921.707 2217.6 923.957C2215.35 926.208 2212.3 927.472 2209.11 927.472V927.472Z" fill="#6556FF"/>
<path d="M2037.18 894.133C1967.76 894.133 1911.24 848.204 1892.98 784.822C1892.1 781.764 1892.47 778.481 1894.01 775.695C1895.55 772.91 1898.14 770.85 1901.19 769.969C1904.25 769.089 1907.54 769.459 1910.32 770.999C1913.11 772.538 1915.17 775.122 1916.05 778.18C1919.52 790.227 1934.15 831.358 1976.7 854.86C2039.36 889.46 2127.61 864.32 2161.52 789.22C2162.17 787.783 2163.09 786.488 2164.24 785.409C2165.39 784.33 2166.74 783.488 2168.22 782.931C2169.69 782.374 2171.26 782.113 2172.84 782.162C2174.41 782.212 2175.96 782.571 2177.4 783.22C2178.84 783.869 2180.13 784.794 2181.21 785.943C2182.29 787.092 2183.13 788.443 2183.69 789.917C2184.25 791.392 2184.51 792.962 2184.46 794.537C2184.41 796.113 2184.05 797.663 2183.4 799.1C2170.8 827.359 2150.28 851.367 2124.34 868.23C2098.4 885.092 2068.13 894.088 2037.18 894.133V894.133Z" fill="#6556FF"/>
<path d="M2172.45 1049.19C2169.85 1049.19 2167.32 1048.34 2165.24 1046.78C2163.16 1045.21 2161.65 1043.01 2160.93 1040.51C2157.46 1028.47 2142.83 987.335 2100.27 963.831C2037.62 929.231 1949.35 954.377 1915.45 1029.47C1914.8 1030.91 1913.88 1032.2 1912.73 1033.28C1911.58 1034.36 1910.23 1035.2 1908.76 1035.76C1907.28 1036.32 1905.71 1036.58 1904.14 1036.53C1902.56 1036.48 1901.01 1036.12 1899.58 1035.47C1898.14 1034.82 1896.85 1033.9 1895.77 1032.75C1894.69 1031.6 1893.85 1030.25 1893.29 1028.78C1892.73 1027.3 1892.47 1025.73 1892.52 1024.16C1892.57 1022.58 1892.93 1021.03 1893.58 1019.6C1933.43 931.323 2037.34 901.665 2111.87 942.821C2161.13 970.021 2178.71 1015.56 2183.99 1033.87C2184.5 1035.66 2184.59 1037.54 2184.25 1039.37C2183.92 1041.2 2183.16 1042.92 2182.04 1044.41C2180.92 1045.89 2179.47 1047.1 2177.81 1047.93C2176.15 1048.76 2174.31 1049.19 2172.45 1049.19V1049.19Z" fill="#6556FF"/>
<path d="M2038.48 1042.18C2037.42 1042.18 2036.41 1041.76 2035.66 1041.01C2034.91 1040.26 2034.48 1039.24 2034.48 1038.18V782.9C2034.48 781.839 2034.91 780.822 2035.66 780.072C2036.41 779.321 2037.42 778.9 2038.48 778.9C2039.54 778.9 2040.56 779.321 2041.31 780.072C2042.06 780.822 2042.48 781.839 2042.48 782.9V1038.18C2042.48 1039.24 2042.06 1040.26 2041.31 1041.01C2040.56 1041.76 2039.54 1042.18 2038.48 1042.18Z" fill="white"/>
<path d="M2010.83 775.872C2019.22 775.872 2026.02 769.073 2026.02 760.686C2026.02 752.299 2019.22 745.5 2010.83 745.5C2002.44 745.5 1995.65 752.299 1995.65 760.686C1995.65 769.073 2002.44 775.872 2010.83 775.872Z" fill="#080717"/>
<path d="M2062.75 775.872C2071.13 775.872 2077.93 769.073 2077.93 760.686C2077.93 752.299 2071.13 745.5 2062.75 745.5C2054.36 745.5 2047.56 752.299 2047.56 760.686C2047.56 769.073 2054.36 775.872 2062.75 775.872Z" fill="#080717"/>
<path d="M2881.89 786.324C2881.17 786.323 2880.46 786.128 2879.84 785.758C2879.22 785.389 2878.72 784.86 2878.37 784.226C2878.03 783.592 2877.87 782.878 2877.9 782.158C2877.93 781.438 2878.15 780.74 2878.54 780.137C2879.26 779.042 2896.34 753.271 2920.79 748.577C2931.91 746.447 2942.7 748.993 2952.89 756.154C2953.32 756.454 2953.69 756.838 2953.97 757.282C2954.26 757.726 2954.45 758.222 2954.55 758.741C2954.64 759.261 2954.63 759.793 2954.51 760.308C2954.4 760.823 2954.18 761.311 2953.88 761.742C2953.58 762.174 2953.19 762.541 2952.74 762.823C2952.3 763.105 2951.8 763.296 2951.28 763.385C2950.76 763.474 2950.23 763.459 2949.71 763.341C2949.2 763.224 2948.71 763.005 2948.29 762.699C2939.94 756.834 2931.2 754.726 2922.3 756.434C2901.15 760.495 2885.4 784.271 2885.24 784.512C2884.88 785.07 2884.38 785.528 2883.79 785.845C2883.21 786.161 2882.55 786.326 2881.89 786.324V786.324Z" fill="white"/>
<path d="M2519.41 1867.65C2515.12 1729.94 2524.4 1594 2547 1463.63C2569.28 1335.11 2590.2 1296.7 2623.38 1267.36C2638.84 1253.87 2656.25 1242.79 2675.02 1234.51C2679.92 1232.35 2684.09 1228.83 2687.04 1224.36C2689.99 1219.89 2691.59 1214.67 2691.64 1209.31V1196.75C2628.87 1196.14 2576.66 1174.67 2551.44 1138.93C2531.7 1110.96 2521.73 1070.37 2521.8 1018.22C2515.67 1017.74 2509.97 1014.88 2505.92 1010.26C2501.88 1005.64 2499.79 999.614 2500.11 993.477C2500.44 987.34 2503.15 981.572 2507.66 977.402C2512.18 973.232 2518.14 970.99 2524.28 971.153C2527.18 942.942 2531.8 914.935 2538.12 887.288C2556.95 803.788 2640.9 748.518 2721.62 782.399C2755.5 779.908 2789.45 786.046 2820.32 800.239C2851.18 814.432 2877.94 836.217 2898.1 863.558C2956.66 942.59 2947.07 1045.16 2893.27 1110.7C2873.12 1135.7 2850.43 1153.23 2817.75 1168.95V1182.27C2817.74 1191.34 2820.66 1200.18 2826.07 1207.46C2831.49 1214.74 2839.11 1220.08 2847.8 1222.68C2875.64 1231.22 2898.82 1244.59 2916.71 1262.42C2954.62 1300.21 2956.06 1345.95 2959.23 1446.19C2963.41 1578.47 2971.29 1700.93 2994.91 1854.16C2995 1854.72 2994.97 1855.29 2994.81 1855.84C2994.66 1856.38 2994.39 1856.89 2994.03 1857.33C2992.23 1859.49 3024.74 1857.85 2523.53 1871.52C2522.47 1871.55 2521.45 1871.16 2520.67 1870.43C2519.9 1869.71 2519.45 1868.71 2519.41 1867.65ZM2695.64 1188.76C2696.7 1188.76 2697.72 1189.18 2698.47 1189.93C2699.22 1190.68 2699.64 1191.7 2699.64 1192.76V1209.31C2699.58 1216.21 2697.54 1222.94 2693.76 1228.71C2689.97 1234.47 2684.6 1239.02 2678.29 1241.81C2660.26 1249.76 2643.53 1260.4 2628.68 1273.36C2596.9 1301.46 2576.75 1338.82 2554.88 1464.99C2532.6 1593.58 2523.31 1727.61 2527.29 1863.42L2986.31 1850.89C2961.28 1686.9 2954.53 1541.08 2954.94 1541.08C2946.32 1373.73 2956.54 1313.43 2911.05 1268.09C2894.1 1251.19 2872.02 1238.48 2845.45 1230.33C2835.11 1227.23 2826.06 1220.88 2819.62 1212.22C2813.19 1203.56 2809.72 1193.06 2809.74 1182.27V1166.43C2809.74 1165.67 2809.95 1164.93 2810.36 1164.29C2810.76 1163.65 2811.34 1163.13 2812.03 1162.81C2844.78 1147.35 2867.22 1130.26 2887.06 1105.65C2899.77 1090.22 2909.85 1072.79 2916.88 1054.07C2968.12 921.928 2864.32 779.767 2721.24 790.447C2720.6 790.494 2719.95 790.387 2719.36 790.135C2643.22 757.535 2563.77 809.9 2545.92 889.048C2539.36 917.688 2534.66 946.723 2531.86 975.971C2531.8 976.536 2531.63 977.083 2531.35 977.576C2531.07 978.07 2530.69 978.498 2530.24 978.833C2529.78 979.168 2529.25 979.402 2528.7 979.519C2528.14 979.636 2527.57 979.634 2527.02 979.513C2524.74 979.009 2522.38 979.024 2520.11 979.557C2517.83 980.089 2515.71 981.125 2513.9 982.588C2501.83 992.3 2510 1011.9 2525.38 1010.21C2525.94 1010.15 2526.51 1010.21 2527.05 1010.38C2527.59 1010.56 2528.08 1010.84 2528.5 1011.22C2528.92 1011.6 2529.25 1012.07 2529.48 1012.58C2529.71 1013.1 2529.82 1013.66 2529.81 1014.23C2529.23 1066.63 2538.7 1107.03 2557.97 1134.32C2582.06 1168.45 2633.01 1188.76 2694.41 1188.76C2694.82 1188.76 2695.28 1188.74 2695.64 1188.76V1188.76Z" fill="#090817"/>
<path d="M2679.98 1223.99C2679.98 1223.99 2578.2 1259.55 2542.5 1306.09C2506.8 1352.64 2440.97 1514.13 2440.97 1514.13L2587.24 1638.25L2715.4 1431.12L2747.22 1244.18C2716.98 1232.42 2731.93 1237.03 2679.98 1223.99Z" fill="#6556FF"/>
<path d="M2640.72 980.148C2640.19 980.149 2639.66 980.045 2639.18 979.842C2638.69 979.639 2638.25 979.341 2637.88 978.965C2608.3 949.145 2573.92 960.371 2572.47 960.865C2571.47 961.194 2570.38 961.116 2569.44 960.648C2568.5 960.18 2567.78 959.36 2567.44 958.366C2567.09 957.371 2567.16 956.282 2567.61 955.333C2568.07 954.385 2568.88 953.655 2569.87 953.3C2571.51 952.734 2610.37 939.859 2643.56 973.333C2644.11 973.894 2644.49 974.607 2644.64 975.382C2644.79 976.157 2644.71 976.959 2644.41 977.688C2644.1 978.416 2643.59 979.039 2642.93 979.477C2642.28 979.914 2641.5 980.148 2640.72 980.148Z" fill="#080717"/>
<path d="M2594.27 995.714C2590.6 992.171 2584.71 993.141 2584.66 993.152C2584.14 993.246 2583.61 993.238 2583.1 993.127C2582.59 993.017 2582.1 992.806 2581.67 992.507C2581.23 992.209 2580.87 991.828 2580.58 991.387C2580.3 990.945 2580.1 990.452 2580.01 989.935C2579.91 989.419 2579.92 988.888 2580.03 988.375C2580.14 987.861 2580.35 987.375 2580.65 986.943C2580.95 986.51 2581.33 986.141 2581.77 985.856C2582.21 985.572 2582.71 985.376 2583.22 985.282C2583.62 985.208 2593.17 983.52 2599.84 989.967C2601.22 991.364 2602.51 992.851 2603.7 994.418C2607.87 999.661 2609.31 1000.81 2612.9 998.997C2613.85 998.52 2614.94 998.438 2615.95 998.771C2616.96 999.103 2617.79 999.822 2618.27 1000.77C2618.75 1001.72 2618.83 1002.82 2618.5 1003.82C2618.17 1004.83 2617.45 1005.66 2616.5 1006.14C2604.34 1012.27 2598.82 1000.12 2594.27 995.714Z" fill="#080717"/>
<path d="M2586.01 1021.93C2596.03 1021.93 2604.16 1013.8 2604.16 1003.78C2604.16 993.758 2596.03 985.634 2586.01 985.634C2575.99 985.634 2567.87 993.758 2567.87 1003.78C2567.87 1013.8 2575.99 1021.93 2586.01 1021.93Z" fill="#080717"/>
<path d="M2662.82 1054.24C2664.15 1045.3 2654.13 1036.4 2640.44 1034.36C2626.75 1032.32 2614.57 1037.91 2613.23 1046.85C2611.9 1055.79 2621.92 1064.69 2635.62 1066.73C2649.31 1068.77 2661.49 1063.18 2662.82 1054.24Z" fill="#6556FF"/>
<path d="M2587.66 1131.59C2576.17 1131.59 2567.17 1119.24 2567.17 1103.49C2567.17 1087.73 2576.17 1075.39 2587.66 1075.39C2599.16 1075.39 2608.16 1087.73 2608.16 1103.49C2608.16 1119.24 2599.16 1131.59 2587.66 1131.59ZM2587.66 1083.39C2580.89 1083.39 2575.17 1092.59 2575.17 1103.49C2575.17 1114.38 2580.89 1123.59 2587.66 1123.59C2594.43 1123.59 2600.16 1114.39 2600.16 1103.49C2600.16 1092.59 2594.44 1083.38 2587.66 1083.38V1083.39Z" fill="#080717"/>
<path d="M2724.17 1051.15C2723.4 1051.14 2722.65 1050.92 2722.01 1050.5C2721.37 1050.09 2720.86 1049.5 2720.54 1048.8C2720.22 1048.1 2720.11 1047.32 2720.22 1046.56C2720.33 1045.81 2720.66 1045.09 2721.16 1044.51C2730.55 1033.79 2734.4 1024.38 2732.28 1017.31C2729.52 1008.1 2717.35 1004.49 2717.23 1004.45C2716.4 1004.22 2715.66 1003.73 2715.13 1003.05C2714.61 1002.36 2714.31 1001.53 2714.3 1000.66C2714.28 999.801 2714.55 998.956 2715.06 998.256C2715.56 997.556 2716.28 997.039 2717.11 996.781L2754.16 985.202C2755.18 984.886 2756.27 984.985 2757.21 985.478C2758.15 985.971 2758.86 986.816 2759.17 987.829C2759.49 988.842 2759.39 989.939 2758.9 990.878C2758.41 991.818 2757.56 992.523 2756.55 992.839L2729.19 1001.39C2733.51 1004.26 2738.03 1008.64 2739.94 1015.01C2742.93 1024.99 2738.64 1036.69 2727.18 1049.78C2726.81 1050.21 2726.35 1050.56 2725.83 1050.79C2725.31 1051.03 2724.74 1051.15 2724.17 1051.15Z" fill="#080717"/>
<path d="M2400.45 1680.17C2399.92 1680.17 2399.39 1680.06 2398.89 1679.86C2398.4 1679.65 2397.96 1679.34 2397.58 1678.96C2397.21 1678.57 2396.92 1678.12 2396.72 1677.62C2396.53 1677.12 2396.44 1676.59 2396.45 1676.05C2396.57 1672.14 2399.61 1579.83 2428.63 1535.57C2429.23 1534.71 2430.13 1534.12 2431.16 1533.92C2432.18 1533.72 2433.24 1533.93 2434.12 1534.5C2434.99 1535.07 2435.6 1535.96 2435.83 1536.98C2436.05 1538 2435.87 1539.07 2435.32 1539.96C2407.55 1582.32 2404.48 1675.36 2404.45 1676.29C2404.42 1677.33 2403.99 1678.32 2403.24 1679.04C2402.49 1679.77 2401.49 1680.17 2400.45 1680.17Z" fill="#080717"/>
<path d="M2543.86 839.35C2543.27 839.35 2542.68 839.217 2542.15 838.962C2541.61 838.707 2541.14 838.336 2540.76 837.875C2540.38 837.414 2540.12 836.876 2539.97 836.299C2539.83 835.722 2539.82 835.12 2539.94 834.538C2540.04 834.075 2550.24 788.205 2612.72 781.959C2613.78 781.853 2614.83 782.171 2615.65 782.842C2616.48 783.514 2617 784.484 2617.1 785.54C2617.21 786.595 2616.89 787.65 2616.22 788.471C2615.55 789.293 2614.58 789.814 2613.52 789.92C2556.81 795.587 2547.86 835.754 2547.78 836.159C2547.59 837.06 2547.1 837.87 2546.39 838.451C2545.68 839.032 2544.78 839.35 2543.86 839.35Z" fill="white"/>
<path d="M2773.43 953.926C2691.42 953.926 2659.44 852.626 2659.13 851.584C2658.83 850.575 2658.95 849.491 2659.45 848.567C2659.95 847.642 2660.79 846.952 2661.8 846.644C2662.8 846.336 2663.88 846.435 2664.82 846.921C2665.75 847.407 2666.45 848.24 2666.77 849.24C2667.08 850.24 2698.52 949.249 2777.47 945.84C2778 945.812 2778.53 945.889 2779.02 946.066C2779.52 946.244 2779.97 946.519 2780.36 946.875C2780.75 947.231 2781.06 947.661 2781.28 948.139C2781.5 948.618 2781.62 949.136 2781.64 949.662C2781.66 950.187 2781.58 950.711 2781.4 951.205C2781.22 951.699 2780.95 952.152 2780.59 952.539C2780.24 952.927 2779.81 953.24 2779.33 953.462C2778.86 953.684 2778.34 953.809 2777.82 953.832C2776.34 953.9 2774.88 953.926 2773.43 953.926Z" fill="white"/>
<path d="M2739.7 899.99C2722.59 887.784 2715.11 874.61 2714.81 874.056C2714.29 873.13 2714.16 872.037 2714.45 871.016C2714.73 869.994 2715.42 869.13 2716.34 868.611C2717.27 868.093 2718.36 867.963 2719.38 868.251C2720.4 868.539 2721.27 869.22 2721.79 870.146C2722.37 870.146 2747.82 919.197 2821.82 911.511C2822.35 911.455 2822.88 911.503 2823.38 911.652C2823.89 911.8 2824.36 912.048 2824.77 912.379C2825.18 912.71 2825.52 913.118 2825.77 913.581C2826.02 914.043 2826.17 914.551 2826.23 915.074C2826.28 915.598 2826.23 916.127 2826.08 916.631C2825.93 917.135 2825.69 917.605 2825.35 918.013C2825.02 918.422 2824.61 918.76 2824.15 919.01C2823.68 919.259 2823.18 919.415 2822.65 919.468C2792.87 922.567 2763.56 917.021 2739.7 899.99Z" fill="white"/>
<path d="M3000.59 1447.33C2999.86 1447.32 2999.15 1447.12 2998.53 1446.75C2997.9 1446.37 2997.4 1445.83 2997.06 1445.19C2996.72 1444.54 2996.56 1443.82 2996.6 1443.09C2996.64 1442.37 2996.88 1441.67 2997.29 1441.06C3050.51 1363.41 2959.31 1259.03 2958.39 1257.98C2958.03 1257.59 2957.75 1257.13 2957.57 1256.63C2957.4 1256.14 2957.32 1255.6 2957.34 1255.07C2957.37 1254.54 2957.5 1254.03 2957.73 1253.55C2957.96 1253.07 2958.29 1252.64 2958.68 1252.29C2959.08 1251.94 2959.54 1251.67 2960.05 1251.5C2960.55 1251.32 2961.08 1251.25 2961.61 1251.29C2962.14 1251.33 2962.66 1251.47 2963.13 1251.71C2963.61 1251.94 2964.03 1252.27 2964.37 1252.68C2980.93 1272.25 2994.75 1293.97 3005.48 1317.25C3028.01 1366.82 3027.46 1411.2 3003.89 1445.59C3003.53 1446.13 3003.03 1446.56 3002.46 1446.87C3001.88 1447.17 3001.24 1447.33 3000.59 1447.33Z" fill="white"/>
<path d="M2934.31 1447.33C2933.59 1447.33 2932.88 1447.13 2932.26 1446.76C2931.64 1446.39 2931.13 1445.86 2930.79 1445.22C2930.45 1444.59 2930.29 1443.87 2930.32 1443.15C2930.35 1442.43 2930.58 1441.73 2930.97 1441.13C2993.17 1346.79 2879.39 1209.73 2878.23 1208.35C2877.89 1207.95 2877.64 1207.48 2877.48 1206.98C2877.32 1206.48 2877.26 1205.95 2877.3 1205.43C2877.35 1204.91 2877.5 1204.4 2877.74 1203.93C2877.98 1203.47 2878.31 1203.05 2878.71 1202.71C2879.11 1202.37 2879.58 1202.12 2880.08 1201.96C2880.58 1201.8 2881.11 1201.74 2881.63 1201.79C2882.15 1201.83 2882.66 1201.98 2883.13 1202.22C2883.6 1202.46 2884.01 1202.79 2884.35 1203.19C2884.65 1203.55 2914.36 1239.06 2935.67 1286.16C2964.17 1349.16 2964.86 1404.27 2937.65 1445.53C2937.29 1446.08 2936.79 1446.54 2936.21 1446.85C2935.62 1447.16 2934.97 1447.33 2934.31 1447.33Z" fill="white"/>
<path d="M2584.83 1626.89C2584.16 1626.89 2583.5 1626.72 2582.91 1626.4C2582.32 1626.08 2581.82 1625.61 2581.46 1625.05C2581.1 1624.48 2580.89 1623.84 2580.84 1623.17C2580.79 1622.5 2580.92 1621.83 2581.19 1621.22L2635.14 1503.6C2635.58 1502.64 2636.39 1501.89 2637.38 1501.52C2638.38 1501.15 2639.48 1501.19 2640.44 1501.63C2641.41 1502.08 2642.15 1502.88 2642.52 1503.88C2642.89 1504.87 2642.85 1505.97 2642.41 1506.94L2588.47 1624.56C2588.15 1625.25 2587.64 1625.84 2586.99 1626.26C2586.34 1626.67 2585.59 1626.89 2584.83 1626.89V1626.89Z" fill="white"/>
<path d="M2968.66 1603.39C2967.69 1603.39 2966.75 1603.04 2966.02 1602.4C2965.3 1601.76 2964.82 1600.88 2964.69 1599.92L2953.93 1519.69C2953.86 1519.17 2953.89 1518.64 2954.02 1518.13C2954.16 1517.62 2954.39 1517.15 2954.71 1516.73C2955.03 1516.31 2955.43 1515.96 2955.88 1515.7C2956.34 1515.43 2956.84 1515.26 2957.36 1515.19C2957.88 1515.12 2958.41 1515.16 2958.92 1515.29C2959.42 1515.43 2959.9 1515.66 2960.32 1515.98C2960.74 1516.3 2961.09 1516.69 2961.35 1517.15C2961.61 1517.6 2961.79 1518.1 2961.86 1518.63L2972.63 1598.86C2972.7 1599.42 2972.66 1600 2972.49 1600.54C2972.33 1601.09 2972.05 1601.59 2971.67 1602.02C2971.29 1602.45 2970.83 1602.8 2970.31 1603.03C2969.79 1603.27 2969.23 1603.39 2968.66 1603.39Z" fill="white"/>
<path d="M2688.92 1221.14C2688.92 1221.14 2775.69 1233.34 2824.95 1205.77C2824.95 1205.77 2843.33 1214.96 2889.73 1228.82C2936.12 1242.68 2998.79 1296.91 3025.9 1359.57C3053.02 1422.24 3095.8 1551.49 3095.8 1551.49L2968.66 1599.39L3010.24 1867.52L2509.51 1885C2509.51 1885 2506.38 1407.17 2537.77 1331.25C2569.17 1255.33 2688.92 1221.14 2688.92 1221.14Z" fill="#6556FF"/>
<path d="M2570.97 1286.66C2503.46 1343.31 2502.56 1411.83 2431.98 1537.76C2431.58 1537.75 2399.48 1467.06 2382.37 1374.64C2378.59 1355.52 2312.27 1306.89 2307.05 1287.87C2301.84 1268.85 2298.62 1211.95 2279.94 1216.74C2261.26 1221.53 2276.09 1402.39 2276.1 1402.44C2280.3 1498.19 2299.17 1766.15 2385.99 1790.4C2423.69 1800.93 2448.66 1785.58 2448.66 1785.58C2592.31 1667.08 2671.58 1447.16 2714.66 1266.04C2719.16 1247.14 2702.36 1230.19 2683.36 1234.22C2629.31 1245.71 2594.14 1267.22 2570.97 1286.66Z" fill="white"/>
<path d="M2412.28 1798.11C2403.03 1798.08 2393.82 1796.78 2384.91 1794.25C2297.51 1769.84 2276.91 1512.24 2272.1 1402.61C2272.07 1402.35 2268.38 1357.11 2267.02 1311.49C2265 1244.13 2268.45 1215.56 2278.94 1212.87C2302.99 1206.7 2305.42 1266.81 2310.91 1286.81C2315.76 1304.48 2382.14 1352.86 2386.3 1373.86C2400.32 1449.62 2424.01 1509.26 2432.36 1528.83C2499.11 1407.36 2501.14 1340.03 2568.4 1283.6C2570.34 1283.6 2604.42 1246.9 2682.54 1230.31C2704.44 1225.67 2723.72 1245.23 2718.56 1266.96C2675.32 1448.74 2595.83 1669.35 2451.2 1788.66C2451.06 1788.78 2450.91 1788.89 2450.75 1788.98C2449.95 1789.48 2435.54 1798.11 2412.28 1798.11ZM2280.93 1220.61C2271.73 1226.5 2273.28 1319.42 2280.09 1402.11C2283.78 1486.44 2302.4 1762.9 2387.06 1786.55C2420.71 1795.94 2443.94 1783.66 2446.36 1782.29C2589.29 1664.19 2668 1444.9 2710.77 1265.11C2711.64 1261.43 2711.55 1257.59 2710.53 1253.95C2709.51 1250.31 2707.58 1246.99 2704.93 1244.29C2702.27 1241.6 2698.98 1239.62 2695.36 1238.54C2691.73 1237.47 2687.89 1237.33 2684.2 1238.14C2640.52 1247.41 2603.28 1264.77 2573.54 1289.73C2507.04 1345.52 2506.02 1413.84 2435.47 1539.72C2435.11 1540.36 2434.58 1540.88 2433.94 1541.24C2433.3 1541.6 2432.58 1541.78 2431.85 1541.76C2429.02 1541.66 2428.91 1541.66 2422.77 1526.79C2405.37 1484.63 2388.38 1429.07 2378.44 1375.36C2375.02 1358.12 2308.79 1309.33 2303.2 1288.93C2298.86 1273.06 2293.97 1217.26 2280.93 1220.61V1220.61Z" fill="#090817"/>
<path d="M1784.82 1088.14C1674.43 951 1696.19 749.623 1833.32 639.233C1970.77 528.592 2171.58 550.267 2282.23 687.742C2392.88 825.193 2371.2 1025.99 2233.73 1136.65C2096.28 1247.28 1894.97 1224.98 1784.82 1088.14ZM1863.43 676.624C1746.91 770.418 1728.41 941.524 1822.21 1058.04C1916 1174.56 2087.11 1193.05 2203.63 1099.26C2320.41 1005.25 2338.87 834.646 2244.84 717.84C2150.8 601 1980.19 582.636 1863.43 676.624Z" fill="#080717"/>
<path d="M2664.7 1649.05L2642.23 1667.14C2624.09 1681.74 2597.27 1678.27 2582.84 1659.46L2204.21 1166.08C2190.25 1147.89 2193.11 1122.1 2210.65 1107.98C2228.15 1093.89 2253.96 1096.55 2268.78 1114.11L2669.88 1589.39C2685.18 1607.51 2682.83 1634.45 2664.7 1649.05Z" fill="#080717"/>
<path d="M2715.4 967.309C2715.4 967.309 2770.42 957.668 2772.83 1009.49C2775.24 1061.31 2733.89 1039.75 2715.4 1084.88C2696.91 1130 2725.83 1231.23 2657.14 1274.61C2588.45 1318 2586.26 1483.7 2735.88 1527.08C2885.51 1570.47 3012.53 1517.74 3053.86 1431.12C3095.2 1344.51 2928.89 1163.74 2950.58 1087.82C2972.28 1011.91 2955.76 909.769 2920.64 863.673C2920.64 863.673 3009.34 852.798 2984.94 775.987C2960.54 699.176 2874.67 723.38 2849.36 785.844C2849.36 785.844 2749.94 739.828 2645.09 766.953C2645.09 766.953 2602.61 755.918 2555.61 785.844C2508.62 815.77 2540.25 881.298 2540.25 881.298C2549.15 849.442 2571.72 825.562 2601.26 812.607C2601.26 812.607 2607.13 929.352 2651.12 951.646C2695.07 973.923 2679.63 997.186 2693.9 998.046C2701.34 998.485 2709.64 985.582 2715.4 967.309Z" fill="#080717"/>
<path opacity="0.2" d="M3002.06 1669.06C3314.48 1356.64 3314.48 850.105 3002.06 537.685C2689.64 225.266 2183.1 225.266 1870.69 537.685C1558.27 850.105 1558.27 1356.64 1870.69 1669.06C2183.1 1981.48 2689.64 1981.48 3002.06 1669.06Z" fill="#6556FF"/>
</g>
<defs>
<clipPath id="clip0_1_103">
<rect width="2000" height="2000" fill="white" transform="translate(1380 85)"/>
</clipPath>
</defs>
</svg>
