<svg xmlns="http://www.w3.org/2000/svg" enable-background="new 0 0 750 750" viewBox="0 0 750 750"><path fill="#ffdfd6" d="M211.7,218.7l-0.5,30.6l0,0.6c-1.9,7-4.8,11.8-9.5,12.8c-15.2-1.1-22.3-16.5-22.3-16.5l2.5-23.8        C222.7,217.3,208.6,219.1,211.7,218.7z"/><path fill="#ffc3bc" d="M211.7,218.7l-0.5,30.6c-0.5,0-1-0.1-1.5-0.1c-13.7-1.4-23.9-13.1-24.4-27.2L211.7,218.7z"/><path fill="#fee453" d="M522.5,217.2c0,0,34.9,13.2,51.4,9.9c0,0,4.4,18.4-0.9,32.3c-5.2,13.9-23.9,35.8-22.2,54.2          c0,0-29.1-24.4-48.8-21.2c0,0,0.4-11,11.1-21.4c10.7-10.4,17.2-19.8,16.3-29C528.4,230.9,522.5,217.2,522.5,217.2z"/><path fill="#fff" d="M540.3 238.2c-.1-.1-.2-.2-.3-.2-.5-.2-.7-.8-.4-1.3.2-.5.9-.7 1.4-.4.8.4 5.8 6 16.4 5.5.5 0 1 .4 1 1s-.4 1-1 1C550.7 244 544.9 242.1 540.3 238.2zM553.1 258.3c-8-1.6-11.5-5.1-15.6-9.9-.4-.4-.4-1-.1-1.4s1-.4 1.4-.1c.7.6 4.2 7.2 14.6 9.4.5.1.9.6.8 1.2C554.2 258.1 553.7 258.4 553.1 258.3zM550.6 269.3c-10.5-2.2-14.5-6.4-19-10.8-.4-.3-.5-.9-.2-1.4.3-.4 1-.5 1.4-.2.8.6 5.4 7.7 18.2 10.4.5.1.9.6.8 1.2C551.6 269 551.1 269.4 550.6 269.3zM545.6 279.9c-10.6-2.3-14.7-6.6-19-10.8-.4-.3-.5-.9-.2-1.4.3-.4 1-.5 1.4-.2.8.6 5.4 7.7 18.2 10.4.5.1.9.6.8 1.2C546.7 279.6 546.1 280 545.6 279.9zM537.5 289.1c-6.6-1.4-9.8-4-13.1-7.4-.4-.3-.5-.9-.2-1.4.3-.4 1-.5 1.4-.2.6.5 3.7 5.2 12.2 7 .5.1.9.6.8 1.2C538.6 288.9 538 289.2 537.5 289.1z"/><linearGradient id="a" x1="-2206.651" x2="-2232.414" y1="519.393" y2="549.609" gradientTransform="matrix(-1 0 0 1 -1738.853 0)" gradientUnits="userSpaceOnUse"><stop offset="0" stop-color="#2c364f"/><stop offset=".993" stop-color="#1e2841"/></linearGradient><path fill="url(#a)" d="M361.6,637.7h228.5c9.6,0,18.3-7.6,19.6-17.2l21.1-152.9c1.3-9.9-5.7-18.1-15.6-18.1H386.7         c-9.6,0-18.3,7.6-19.6,17.2L346,619.6C344.6,629.5,351.7,637.7,361.6,637.7z"/><linearGradient id="b" x1="483.911" x2="487.704" y1="504.466" y2="669.239" gradientUnits="userSpaceOnUse"><stop offset="0" stop-color="#fff"/><stop offset=".993" stop-color="#a2dcfd"/></linearGradient><path fill="url(#b)" d="M361.6,628.3h221.3c4.9,0,9.6-4.2,10.3-9.1l21.1-152.9c0.6-4.1-1.9-7.4-6.3-7.4H386.7         c-4.9,0-9.6,4.2-10.3,9.1l-21.1,153C354.7,625,357.2,628.3,361.6,628.3z"/><path fill="#fff" d="M613.8,470.5H376.1l0.4-2.6c0.7-4.9,5.4-9.1,10.3-9.1H608c4.4,0,6.9,3.3,6.3,7.4L613.8,470.5z"/><path fill="#09132c" d="M259.1,298.8c0,0-2.9,25.1-24.2,24.4s-5.1-26.9-5.1-26.9l11.7-1.6L259.1,298.8z"/><path fill="#ffdfd6" d="M304,298l-42,34.7c-9,7.8-23,4.4-27.4-6.6c-6.5-16.2-14.2-35.3-14.6-35.3l29.1,1.9           c0.8-0.2,9.1,13.4,9.4,12.9c0.4-0.5,44.8-28.6,44.9-28.5C303.6,277.2,304,298,304,298z"/><linearGradient id="c" x1="227.67" x2="259.124" y1="292.29" y2="292.29" gradientUnits="userSpaceOnUse"><stop offset="0" stop-color="#fba548"/><stop offset=".993" stop-color="#ff9141"/></linearGradient><path fill="url(#c)" d="M229.1,263.6c1.2-0.1,16.7,8.5,19.7,12c3.1,3.5,10.3,23.3,10.3,23.3c-14.6,3.4-19.6,13.3-31.5,22.2           L229.1,263.6z"/><path fill="#1e2841" d="M307.5 581.3c0 0-22.8 13.1-35.1 12.7s-34.1.1-34.1.1l15.2-21.7 18.3-8h9.9l24.6 16.1M186.8 587c0 0-19.5-1.8-38.3-9.7-18.9-7.9-26.8-11.1-26.8-11.1l25.5-10.8c0 0 26.2-2 27-1.9.8.1 11.5 9.8 11.5 9.8L186.8 587z"/><path fill="#ffdfd6" d="M159.8,588.4l14.8-26.5l-34.5-7.3l-8.8,32.5c0,0,8.4,14.1,9,14.6c0.6,0.4,15.7-4.6,15.7-4.6            L159.8,588.4z"/><path fill="#1e2841" d="M160.4,588.6c0,0,12.8,13,12.9,23.9c0,0,24.9,9.3,26.5,16.1s-6.7,9.1-6.7,9.1l-74-25.1            c3.4-10.4,7.4-19.5,12.4-25.6l14.6,10.9L160.4,588.6z"/><path fill="#fff" d="M159.2 600.1l8.6-2.3c.3-.1.5.1.6.4.1.3-.1.5-.4.6l-8.6 2.3C158.8 601.2 158.5 600.2 159.2 600.1zM160.1 606.1c-.1-.3.1-.5.4-.6l8.6-2.3c.3-.1.5.1.6.4.1.3-.1.5-.4.6l-8.6 2.3C160.4 606.5 160.2 606.3 160.1 606.1z"/><path fill="#1e2841" d="M171.8,599c-2.5,0-4.4-1-4.5-1c-0.2-0.1-0.3-0.4-0.2-0.6c2.4-6.4,13.2-11.1,14.3-6.2             c0.6,2.6-1.8,5.3-6.3,7.2C174,598.8,172.8,599,171.8,599z M168.2,597.3c1,0.4,3.8,1.3,6.5,0.2c3.2-1.4,6.3-3.7,5.8-6.1             C179.7,588.3,171.1,591.2,168.2,597.3z"/><path fill="#1e2841" d="M169.4,601.4c-0.2-0.1-0.3-0.4-0.2-0.7c0.1-0.2,0.4-0.3,0.7-0.2c2.4,1.4,10.7,5.6,11.2,2.9             c0.5-2.9-10-4.7-12.9-5.1l0-0.5l0.2-0.5c3.9,0.6,14.4,2.4,13.7,6.3C181.3,607.6,172.9,603.4,169.4,601.4z M168.1,597.8             l0.1-0.5L168.1,597.8z"/><path fill="#ffdfd6" d="M281.9,600.8l4.4-30.1l-34.8,5.5l3.4,33.5c0,0,12.9,10.2,13.7,10.4c0.8,0.2,13-9.8,13-9.8            L281.9,600.8z"/><path fill="#1e2841" d="M282.6,600.7c0,0,16.6,7.5,20.6,17.7c0,0,26.6-0.2,30.5,5.6c3.9,5.8-3,10.9-3,10.9l-78.1,3            c-0.6-11-0.1-20.8,2.4-28.3l17.5,5L282.6,600.7z"/><path fill="#fff" d="M285.8 612.8c-.2 0-.3-.1-.4-.2-.2-.2-.1-.5.1-.7l7.3-5.2c.2-.2.5-.1.7.1.2.2.1.5-.1.7l-7.3 5.2C286 612.8 285.9 612.8 285.8 612.8zM288.9 617.4c-.2 0-.3-.1-.4-.2-.2-.2-.1-.5.1-.7l7.3-5.2c.2-.2.5-.1.7.1.2.2.1.5-.1.7l-7.3 5.2C289.1 617.4 289 617.4 288.9 617.4z"/><path fill="#1e2841" d="M293.2,607.1c-0.5,0-0.8,0-0.8,0c-0.3,0-0.4-0.2-0.4-0.5c0-0.2,0-4.2,2.8-7.7             c1.1-1.4,3.9-4.5,6.4-4.4c0.8,0,1.5,0.4,2,1.1c1.5,2.2,0.2,5.6-3.3,9C297.5,606.8,294.6,607.1,293.2,607.1z M293,606.1             c1.1,0,4-0.1,6.1-2.2c2.5-2.4,4.6-5.7,3.2-7.7c-0.3-0.4-0.7-0.7-1.2-0.7c-1.4-0.1-3.5,1.5-5.5,4             C293.5,602,293.1,604.9,293,606.1z"/><path fill="#1e2841" d="M302.1,610c-3,0-6-0.5-6.6-0.6c-0.3,0-0.5-0.3-0.4-0.6s0.3-0.5,0.6-0.4c2.6,0.4,9.7,1.2,11.2-0.4             c0.2-0.2,0.3-0.5,0.2-0.8c-0.1-0.3-0.3-0.6-0.6-0.8c-2-1.3-8.2-0.5-13.3,0.6l-0.2-0.5l0-0.5c2.6-0.6,11.1-2.4,14-0.5             c0.6,0.4,0.9,0.8,1,1.4c0.1,0.7,0,1.3-0.5,1.7C306.7,609.7,304.4,610,302.1,610z M293,606.6L293,606.6L293,606.6z"/><linearGradient id="d" x1="187.933" x2="233.141" y1="436.095" y2="479.521" gradientUnits="userSpaceOnUse"><stop offset="0" stop-color="#7c7aff"/><stop offset=".996" stop-color="#7c59fe"/></linearGradient><path fill="url(#d)" d="M307.5,581.3c-24.5-7.5-47.3-1.3-69.2,12.8l-5.8-70.5l-3.9-29.6c-0.1-0.4-37.9-122-40.7-134.6            c-0.1-0.7-0.2-1-0.1-0.9c0.3,0.2,1.8,0.4,4,0.7c9.1,1.2,33.7,3.4,33.8,3.4c0.2-0.1,2.1,3.4,5.2,9.3            c12.2,23.6,42.3,85.4,50.6,110.5C291.3,512,307.5,581.3,307.5,581.3z"/><linearGradient id="e" x1="171.073" x2="181.97" y1="398.51" y2="510.524" gradientUnits="userSpaceOnUse"><stop offset="0" stop-color="#7c7aff"/><stop offset=".996" stop-color="#7c59fe"/></linearGradient><path fill="url(#e)" d="M238.2,510.6l-5.8,13L186.8,587c-22-14.1-38-25.2-65.1-20.8l59.7-81.6            c-16.6-37.5-34.4-73.4-39.6-104.4c-1-5.9-1.5-11.9-1.5-17.7l13-0.8l34.5-2.2l3.9-0.3l10.5-0.7c0,0,0.3,0.7,0.7,1.9            c6.2,16.7,21.5,58.2,38.2,103.4C246.9,479.2,245.8,496.1,238.2,510.6z"/><path fill="#09132c" d="M230.8,371.9c-21.2-3.4-44.6-1.6-65.7,3.2c-6.9,1.6-16.9,1.9-23.3,5.2c-0.8-4.6-1.3-9.1-1.4-13.5            c2.8-1.6,5.9-3.4,6.6-3.5c0.3,0,2.8-0.7,6.3-1.6l34.5-2.2c-0.1-0.7-0.2-1-0.1-0.9c0.3,0.2,1.8,0.4,4,0.7l10.5-0.7            c0,0,0.3,0.7,0.7,1.9c10.5,1.1,22.6,2.1,22.6,2.1C225.8,362.5,227.8,366,230.8,371.9z"/><path fill="#fff" d="M166.7,444.3l-0.8-0.6c1.3-1.9,5.5-4.4,8.5-6.2c7.5-4.5,7.5-7.1,5.1-11.9l-20.1-41l0.9-0.4l20.1,41             c2.1,4.4,2.7,8.1-3.6,12.1C174.4,438.7,168.2,442.1,166.7,444.3z"/><path fill="#09132c" d="M240.7,464c-8.5-23-21.2-57.5-29.8-80.7l0.9-0.3c8.6,23.2,21.3,57.7,29.8,80.7L240.7,464z"/><linearGradient id="f" x1="134.029" x2="240.829" y1="310.317" y2="310.317" gradientUnits="userSpaceOnUse"><stop offset="0" stop-color="#fba548"/><stop offset=".993" stop-color="#ff9141"/></linearGradient><path fill="url(#f)" d="M240.7,288.1l-7.2,81.4c-33.2-7.9-88.8,6.9-93.5,4.7c-3.7-1.8-2.6-9.2-1.5-13.3l0,0            c0,0-5.4-1.1-4.4-15.6c0.7-10,5.4-43.8,8.3-64.1c1.4-9.6,7.8-17.8,16.9-21.2l14.2-5.5l5.7-8.3c4,8.9,14.2,15.7,22.3,16.5            c6.4-2.5,7.7-6.9,9.5-12.8l9.7,9.4l5.1,2.5C235.8,266.6,241.7,277.1,240.7,288.1z"/><path fill="#09132c" d="M183.2,309.1c0,0-5.5,18.1-37.5,17.8c0,0,4.9-22.9,5.2-23.3s14.6-5.6,14.6-5.6L183.2,309.1z"/><linearGradient id="g" x1="807.213" x2="781.956" y1="-831.718" y2="-722.873" gradientTransform="rotate(41.245 -916.257 -922.672)" gradientUnits="userSpaceOnUse"><stop offset="0" stop-color="#2c364f"/><stop offset=".993" stop-color="#1e2841"/></linearGradient><path fill="url(#g)" d="M235.9,356.5c-3.4-3-3.7-8.2-0.6-11.5l69.2-74.1c1.8-1.9,4.8-2.1,6.8-0.3c2,1.7,2.2,4.7,0.6,6.8            l-64.5,78.3C244.1,359.4,239,359.3,235.9,356.5z"/><path fill="#ffdfd6" d="M177.2,303.9l7.6,22.3l51.3,11.2l0.8,21.8l-51.9,1.5c-12.4,2.6-24.6-4.9-27.8-17.2l-10.9-34.4            L177.2,303.9z"/><linearGradient id="h" x1="132.669" x2="183.246" y1="292.769" y2="292.769" gradientUnits="userSpaceOnUse"><stop offset="0" stop-color="#fba548"/><stop offset=".993" stop-color="#ff9141"/></linearGradient><path fill="url(#h)" d="M162.9,258.6c0,0-25.9,8.7-28.9,18.2c-6.4,19.8,11.7,50.1,11.7,50.1c8.3-14,20.1-21.3,37.5-17.8            L162.9,258.6z"/><rect width="1" height="32.3" x="176.7" y="277.9" fill="#09132c" transform="rotate(-21.925 177.226 294.098)"/><linearGradient id="i" x1="188.932" x2="184.46" y1="256.444" y2="264.053" gradientUnits="userSpaceOnUse"><stop offset="0" stop-color="#ff9141"/><stop offset=".993" stop-color="#ff7945"/></linearGradient><path fill="url(#i)" d="M201.6,262.7c-0.4,0.8-8.3,15.1-9.1,15.6c-3.9,2.1-23.6-21-19-23.7l5.7-8.3            C183.2,254.8,192.7,261.6,201.6,262.7z"/><linearGradient id="j" x1="207.144" x2="211.97" y1="256.157" y2="262.506" gradientUnits="userSpaceOnUse"><stop offset="0" stop-color="#ff9141"/><stop offset=".993" stop-color="#ff7945"/></linearGradient><path fill="url(#j)" d="M220.8,259.2c-0.5,7.5-4.4,12.7-10,16.6l-9.3-12.8l0-0.4c0.1,0,0.1,0,0.2,0            c6.4-2.5,7.7-6.9,9.5-12.8L220.8,259.2z"/><path fill="#fff" d="M237.2,408.1c-1.7-2.6-1.8-3.3-10.8-28.1l0.9-0.3c9,24.9,9.1,25.5,10.7,27.9c3.3,5,11.3,6,12.4,4.5             l0.8,0.6C249.7,414.7,240.9,413.7,237.2,408.1z"/><path fill="#09132c" d="M159.3,354.1c0,0-14.9,4.3-21.7,11.4c0.3-2.4,0.8-4.4,0.9-4.6C143.8,357.3,152.3,353.9,159.3,354.1z"/><path fill="#fff" d="M181.1 569.3c-12.6-6.4-26.1-10.8-40-13.1l.2-1c14 2.4 27.6 6.8 40.3 13.2L181.1 569.3zM250.9 574.1l-.5-.8c10.8-7.1 24.9-8.6 37-4.1l-.4.9C275.2 565.7 261.4 567.2 250.9 574.1zM207.6 548.8l-.9-.5c22.3-40 30.2-51.3 29.9-65.9-.3-15.1-10.3-27.6-19.5-38.8l.8-.6c9.4 11.5 19.4 24 19.7 39.4C237.9 497.1 230.3 508 207.6 548.8zM277.4 540.9l-9.2-50.9c-2.4-13.5-5.2-28.8-14.4-40.3l.8-.6c9.3 11.7 12.1 27.1 14.6 40.7l9.2 50.9L277.4 540.9z"/><path fill="#09132c" d="M239.2,311.2l-1-0.1l2-23.1c0.5-5.7-0.9-11.6-4-16.4l0.8-0.5c3.2,5,4.7,11.1,4.2,17L239.2,311.2z"/><g opacity=".6"><linearGradient id="k" x1="-2106.495" x2="-2098.538" y1="594.553" y2="615.773" gradientTransform="matrix(-1 0 0 1 -1663.415 0)" gradientUnits="userSpaceOnUse"><stop offset="0" stop-color="#fee453"/><stop offset=".996" stop-color="#fed350"/></linearGradient><polygon fill="url(#k)" points="372.7 608.4 510 608.4 513.2 581.4 375.9 581.4"/></g><linearGradient id="l" x1="502.859" x2="530.156" y1="415.63" y2="422.706" gradientUnits="userSpaceOnUse"><stop offset="0" stop-color="#fee453"/><stop offset=".996" stop-color="#fed350"/></linearGradient><path fill="url(#l)" d="M510.9,455.9c-0.1-2.2-1.1-4.1-2.6-5.4c12-4.9,16.9-21.9,10.3-34.4c-3.2-5.4-8.2-16.4-8.4-22.9          c-0.3-8.5,2.1-12.6,2.3-13.1l2.6,1.6l2.6,1.5c0,0-1.7,3.1-1.5,9.8c0.2,5.6,5.1,15.6,7.3,19.6l0,0          C532.3,428,526.3,449.2,510.9,455.9z"/><linearGradient id="m" x1="722.54" x2="681.198" y1="420.882" y2="599.043" gradientTransform="matrix(1 0 -.2059 1 -107.158 0)" gradientUnits="userSpaceOnUse"><stop offset="0" stop-color="#7fc1fe"/><stop offset="1" stop-color="#5fa5fd"/></linearGradient><path fill="url(#m)" d="M551.9,585.2H396.5c-12.6,0-20.7-10.2-18.1-22.8L400,457.6c2.6-12.6,14.9-22.8,27.5-22.8h155.4           c12.6,0,20.7,10.2,18.1,22.8l-21.6,104.8C576.9,575,564.5,585.2,551.9,585.2z"/><path fill="#fff" d="M530.6 545.7h-96.6c-3.2 0-5.3-2.6-4.6-5.8l1.1-5.2c.7-3.2 3.8-5.8 7-5.8h96.6c3.2 0 5.3 2.6 4.6 5.8l-1.1 5.2C537 543.1 533.9 545.7 530.6 545.7zM525.6 570.1H429c-3.2 0-5.3-2.6-4.6-5.8l1.1-5.2c.7-3.2 3.8-5.8 7-5.8h96.6c3.2 0 5.3 2.6 4.6 5.8l-1.1 5.2C532 567.5 528.8 570.1 525.6 570.1zM513.2 500.1c-1.1 5.6-4.3 10.7-8.6 14.5-9.9 8.9-24.8 9.8-31.8 0-2.7-3.8-3.8-8.9-2.6-14.5 2.4-11.9 14.1-21.5 25.9-21.5S515.7 488.2 513.2 500.1z"/><linearGradient id="n" x1="694.638" x2="709.101" y1="495.256" y2="495.256" gradientTransform="matrix(1 0 -.2059 1 -107.158 0)" gradientUnits="userSpaceOnUse"><stop offset="0" stop-color="#f87561"/><stop offset=".993" stop-color="#f95d68"/></linearGradient><path fill="url(#n)" d="M500,495.3c-0.8,4-4.7,7.2-8.7,7.2s-6.6-3.2-5.7-7.2s4.7-7.2,8.7-7.2           C498.2,488,500.8,491.3,500,495.3z"/><linearGradient id="o" x1="685.994" x2="717.745" y1="512.862" y2="512.862" gradientTransform="matrix(1 0 -.2059 1 -107.158 0)" gradientUnits="userSpaceOnUse"><stop offset="0" stop-color="#f87561"/><stop offset=".993" stop-color="#f95d68"/></linearGradient><path fill="url(#o)" d="M504.6,514.6c-9.9,8.9-24.8,9.8-31.8,0c3.9-6.2,10.9-10.5,18-10.5S503.3,508.4,504.6,514.6z"/><polygon fill="#2c364f" points="505.2 535.7 443.6 535.7 442.7 539.7 504.4 539.7"/><polygon fill="#2c364f" points="514.2 535.7 513.4 539.7 522.4 539.7 523.3 535.7"/><ellipse cx="450.2" cy="562.5" fill="#2c364f" rx="4.1" ry="3.4" transform="rotate(-42.061 450.198 562.547)"/><ellipse cx="465.5" cy="562.5" fill="#2c364f" rx="4.1" ry="3.4" transform="rotate(-42.061 465.531 562.547)"/><ellipse cx="480.8" cy="562.5" fill="#2c364f" rx="4.1" ry="3.4" transform="rotate(-42.061 480.864 562.547)"/><ellipse cx="496.2" cy="562.5" fill="#2c364f" rx="4.1" ry="3.4" transform="rotate(-42.061 496.197 562.547)"/><linearGradient id="p" x1="489.716" x2="510.948" y1="458.844" y2="458.844" gradientUnits="userSpaceOnUse"><stop offset="0" stop-color="#2c364f"/><stop offset=".993" stop-color="#1e2841"/></linearGradient><path fill="url(#p)" d="M510.7,458.8c-1.3,5.7-7,10.3-12.7,10.3c-5.7,0-9.3-4.6-7.9-10.3c0.8-3.5,3.2-6.5,6.1-8.3         c6.8-4.3,14.4-1.5,14.9,5.3C511,456.8,510.9,457.8,510.7,458.8z"/><linearGradient id="q" x1="491.817" x2="510.947" y1="459.135" y2="459.135" gradientUnits="userSpaceOnUse"><stop offset="0" stop-color="#1e2841"/><stop offset=".996" stop-color="#09132c"/></linearGradient><path fill="url(#q)" d="M510.7,458.8c-1.3,5.7-7,10.3-12.7,10.3c-2.6,0-4.7-0.9-6.1-2.5c1,0.4,2.1,0.6,3.3,0.6         c5.7,0,11.4-4.6,12.7-10.3c0.7-3.2,0-6-1.8-7.9C509.7,450.5,511.7,454.3,510.7,458.8z"/><linearGradient id="r" x1="476.782" x2="510.928" y1="434.701" y2="434.701" gradientUnits="userSpaceOnUse"><stop offset="0" stop-color="#fee453"/><stop offset=".996" stop-color="#fed350"/></linearGradient><path fill="url(#r)" d="M510.9,455.9c-16.8,7.3-34.6-7.3-34.1-28.1c0.2-5.8,1.8-11.4,4.7-16.2l5.2,3.2           c-2.4,3.8-3.7,8.4-3.8,13.1c-0.4,16.4,13,27.6,25.4,22.5C509.8,451.7,510.8,453.7,510.9,455.9z"/><linearGradient id="s" x1="740.513" x2="758.741" y1="73.715" y2="73.715" gradientTransform="rotate(14.534 -715.752 -773.382)" gradientUnits="userSpaceOnUse"><stop offset="0" stop-color="#fee453"/><stop offset=".996" stop-color="#fed350"/></linearGradient><polygon fill="url(#s)" points="481.5 411.6 487 403.4 496.6 426 482 422.2"/><path fill="#ffdfd6" d="M250.7,339.7l-17.8-2c0,0,18.1-7.7,19.6-6.7C257.3,334.4,250.7,339.7,250.7,339.7z"/><path fill="#ffdfd6" d="M232.9,337.7l4,21.2l5-0.2c0,0,9.1,1.8,12.5,0.3c3.3-1.5,4.3-4.9,4.3-4.9s7.7-1.5,8.8-3.5           c1.1-2.1,0.2-2.7,0.2-2.7c0.7,0.1,3-3-0.7-4.2c0,0-0.2-4.1-3.3-4.2c-3-0.1-13.2,0.3-13.2,0.3L232.9,337.7z"/><path fill="#271e55" d="M246.7 359.9l.1-1c3.5.4 6.1.2 7.4-.4 3.1-1.4 4.1-4.6 4.1-4.6l1 .3c0 .1-1.1 3.6-4.6 5.2C252.6 360.3 248.9 360.1 246.7 359.9zM257.6 350.9l0-1c3.2.1 7.6-.5 10-2.6l.2 0c.6-.2 1.9-2.3-.8-3.2-.9 0-8.3.3-14 2.4l-.3-.9c6.2-2.3 14.1-2.5 14.4-2.5l.1 0 .1 0c3.8 1.2 2.2 4.8.7 5.2C265.4 350.4 261 351 257.6 350.9z"/><path fill="#271e55" d="M248.1,355.9l0.1-1c6.8,0.4,16.5-3,17.3-3.5l0.2,0.4l0.5,0.1C266,352.9,254.8,356.4,248.1,355.9z"/><g><path fill="#ffdfd6" d="M296.1,294.8C296.1,294.8,296.1,294.8,296.1,294.8c-2.2-2.5-3.6-5.2-2.9-6.5          c2.1-4.4,10.1,3.6,15.5,4.3c0,0,3.8,6-2,7.5c-0.4,0.1-0.8,0.1-1.2,0.1C302.4,300.2,298.7,297.7,296.1,294.8z"/><path fill="#ffdfd6" d="M289.9,294.4c1.1-2.1,3.5-1.2,6.2,0.4c0,0,0,0,0,0c2.6,2.8,6.2,5.4,9.3,5.4c0.7,1.6,2,5.8-2.8,6.7          C296.5,307.9,288.2,297.5,289.9,294.4z"/><path fill="#ffdfd6" d="M286.2,299.6c0.9-1.7,2.8-1.4,4.9-0.3c2.4,3.8,7.3,8.1,11.2,7.7c0.4,1.9,0.3,4.4-3.3,5.1          C293.1,313.2,284.5,302.7,286.2,299.6z"/><path fill="#1e2841" d="M305.5,300.7C305.5,300.7,305.5,300.7,305.5,300.7c-3.5,0-7.2-2.8-9.7-5.4l-0.3-0.1l0-0.3           c-1.9-2.2-3.7-5.1-2.8-6.9c1.9-4.1,6.4,0,10.9,2.1l-0.4,0.9c-4.7-2.2-8.1-5.5-9.5-2.6c-0.5,1.1,0.6,3.5,2.8,6l0.1,0.1           c2.2,2.4,5.8,5.1,8.9,5.1c0.4,0,0.8,0,1.1-0.1c3.5-0.9,3.3-3.9,1.4-6.8l0.8-0.6c2.4,3.5,2.2,7.3-2,8.3           C306.4,300.7,306,300.7,305.5,300.7z"/><path fill="#ffdfd6" d="M299.6,289.3C299.5,289.3,299.5,289.3,299.6,289.3c-2.2-2.5-3.6-5.2-2.9-6.5          c2.1-4.4,10.1,3.6,15.5,4.3c0,0,3.8,6-2,7.5C306.5,295.4,302.1,292.1,299.6,289.3z"/><path fill="#1e2841" d="M299.3 289.8L299.3 289.8c-.4-.6-4.3-4.8-3.1-7.2 1.5-3.2 4.6-1.4 7.7.4 1 .6 2.1 1.2 3.2 1.7l-.4.9c-1.2-.6-2.2-1.2-3.3-1.8-2.8-1.6-5.2-3.1-6.3-.8-1.3 2.7 7.3 12.4 12.9 11.1 3.6-.9 3.3-4.1 1.4-6.8l.8-.6c2.4 3.5 2.2 7.3-2 8.3C306.5 296 302 292.7 299.3 289.8zM289.5 294.2c1.4-2.6 4.3-1.3 6.8.2l.1.1.2.1 0 .1c2.2 2.4 5.8 5.1 8.8 5.1v1c-3.4 0-7.2-2.8-9.6-5.4l-.3-.1 0-.1c-1.9-1.1-4.2-2.2-5.2-.4-.4.8 0 2.5 1.2 4.4 2.2 3.5 7 8 11 7.4 1.3-.2 2.2-.8 2.6-1.5l.9.5c-.6 1-1.7 1.7-3.3 2C296.3 308.4 287.6 297.6 289.5 294.2z"/><path fill="#1e2841" d="M285.8,299.3c1.3-2.3,3.8-1.4,5.6-0.5l0.1,0.1l0.1,0.1c2.4,3.9,7.2,7.8,10.7,7.4l0.1,1           c-4.3,0.5-9.3-4.2-11.6-7.8c-2.8-1.4-3.7-0.7-4.1,0.1c-1.5,2.8,7.7,14.4,13.7,11.3l0.5,0.9           C294,315.6,283.8,303,285.8,299.3z"/></g><g><path fill="#09132c" d="M200.2,217.7c-0.3,5.3-2.6,10.5-6.7,13.8c-4.1,3.3-10,4.4-14.8,2.2c-4.4-2-7.3-6.5-8.6-11.1         c-1.3-4.7-1.3-13.7-1.2-18.5l13-8.4c2.5-1.8,6.1-1.6,8.7,0c2.7,1.6,4.5,4.2,6,6.9C199,207.2,200.5,212.4,200.2,217.7z"/><path fill="#ffdfd6" d="M236.3,221.1c-0.2,1.4-0.4,2.8-0.7,4.2c-3.4,13.6-15.9,23.1-29.6,21.7c-15.1-1.5-25.9-15.6-24.3-31.4          c1.7-15.8,15.2-27.4,30.3-25.9c11.2,1.1,20.1,9.2,23.2,19.8C236.3,213.2,236.7,217.1,236.3,221.1z"/><path fill="#ffdfd6" d="M187.3,223.1c-2.3,0.8-5.5,0.3-7.8-1.4c-5.7-4-4.7-12.1-0.6-14.2c1.7-0.9,4.4-0.8,6.3,0.6l-1,3.6          c-1.7-0.2-1.2,1.4-0.4,1.4l0.4-1.4c2.3,0.3,5.7,3,6.3,6.1C190.8,220.1,189.5,222.3,187.3,223.1z"/><path fill="#09132c" d="M240,188.3c0.6,2.1,3.4,2.4,5.1,3.7c1.5,1.1,2.1,3.1,1.9,5c-0.5,4.6-6.2,10.4-13.7,10.7          c-3.9,0.1-7.7-1.2-11.3-2.6c-3.6-1.5-13,0.7-16.9,0.1c-3.4-0.5-13.7,1.6-13.7,1.6s0.5,6.1-0.9,9.6c-0.1-0.1-3.7-0.3-4.4-4.2          c-0.6-3.1-2.5-4.7-2.6-4.9c-2.7-1.3-5.1,0.4-7.2,2.9c0,0-12.5-4.7-9.4-14.8c2.8-9.2,9.1-4.9,10.9-4.3          c0.2,0.1,0.3,0.1,0.3,0.1c0.6-7.5,5.3-14.8,10.4-20.3c9.4-9.5,22.6-12.1,28.2-11.6c5.6,0.4,11.2,3.6,13.8,8.6          c0.6,1.1,1,2.2,1.9,3c1.7,1.6,4.4,1.3,6.7,1.2c2.9-0.2,6.1,0.1,8.4,1.9c2.3,1.8,3.2,5.6,1.2,7.7c-1.4,1.4-3.6,1.6-5.4,2.3          C241.4,184.7,239.4,186.4,240,188.3z"/><path fill="#09132c" d="M178.2 190c-.1.4-.1.8-.1 1.1 0 0-.1 0-.3-.1C177.9 190.7 178 190.4 178.2 190zM220.4 231.6c-.3 0-.5-.3-.5-.5 0-.3.3-.5.5-.5 1.9.1 4.3.2 5.2-1.7.6-1.3.2-1.9-2.1-12.4-.1-.3.1-.5.4-.6.3-.1.5.1.6.4l2.1 9.4c.2 1 .5 2.4 0 3.7C225.5 231.7 222.8 231.7 220.4 231.6zM209.6 233.2c-.1-.3 0-.5.3-.7.3-.1.5 0 .7.3 1.6 3.8 6.3 5.3 9.8 3 .2-.1.5-.1.7.1.1.2.1.5-.1.7C216.9 239.2 211.5 237.7 209.6 233.2z"/><path fill="#ffdfd6" d="M181.3,216l-0.3,1.2C180.3,217.3,179.8,215.9,181.3,216z"/><path fill="#09132c" d="M184.8,220.5c-4.9,0.3-8-5.6-5.9-7.4c2.3-2,5.8,1.5,5.7,3c0,1.2-1.6,1.8-2.3,0.9         c-0.4-0.3-0.2-1.2,0.4-1c-0.5,0-0.5,0.6-0.2,0.8c0.8,0.6,2.3-0.3,1-1.7c-1-1-2.6-2.4-3.9-1.3c-0.5,0.4-0.4,1.1-0.2,1.9         C180.1,218.3,182.2,220.1,184.8,220.5L184.8,220.5z"/></g><path fill="#09132c" d="M219.8,212.1c0.2,0,4,1.3,8.8-0.2c4.8-1.6,0.9,11.9,0.9,11.9s-6.8-2.9-9.3-0.4        C219.1,224.4,219.8,212.1,219.8,212.1z"/><circle cx="213.7" cy="218.1" r="9.4" fill="#09132c"/><path fill="#09132c" d="M236.3,221.1c-0.2,1.4-0.4,2.8-0.7,4.2c-0.6,0.1-1.2,0.2-1.8,0.2c-4.5,0-8.1-3.6-8.1-8.1        c0-4.5,3.6-8.1,8.1-8.1c0.5,0,1,0,1.5,0.1C236.3,213.2,236.7,217.1,236.3,221.1z"/><path fill="#fff" d="M234.8,217.8c-0.2,2.3-1.8,4-3.6,3.9l-0.1,0c-3.1-0.4-3.7-6.1-0.7-7.9        C232.7,212.3,235.1,214.6,234.8,217.8z"/><path fill="#09132c" d="M234.5,217.8c-0.2,2-1.6,3.5-3.1,3.3l-0.1,0c0.4-1,0.5-2.1,0.4-3.2c0.2-0.2,0.4-0.3,0.6-0.5        c0.1-0.1,0.2-0.3-0.1-0.3c-0.2,0-0.4-0.1-0.6-0.1c-0.2-1-0.5-1.9-1-2.7C232.7,213,234.7,215,234.5,217.8z"/><path fill="#fff" d="M217.2,218.1c-0.2,2.3-1.8,4-3.6,3.9l-0.1,0c-3.1-0.4-3.7-6.1-0.7-7.9        C215.1,212.5,217.5,214.8,217.2,218.1z"/><path fill="#09132c" d="M216.9 218c-.2 2-1.6 3.5-3.1 3.3l-.1 0c.4-1 .5-2.1.4-3.2.4-.3 1-.8.5-.8-.2 0-.4-.1-.6-.1-.2-1-.5-1.9-1-2.7C215.1 213.2 217.1 215.2 216.9 218zM206.8 211.7c0 0-22.2-4-30-6.6-.9-.6-3.3 12.9-1.3 15.4 2.9 3.6 27.5 4.2 31.8 3.7"/><linearGradient id="t" x1="503.978" x2="530.458" y1="370.873" y2="377.737" gradientUnits="userSpaceOnUse"><stop offset="0" stop-color="#fee453"/><stop offset=".996" stop-color="#fed350"/></linearGradient><path fill="url(#t)" d="M520.6,361.1c-7.3-1.9-14.8,2.5-16.7,9.8s2.5,14.8,9.8,16.7c7.3,1.9,14.8-2.5,16.7-9.8       C532.4,370.4,528,363,520.6,361.1z M515.4,381.4c-3.9-1-6.3-5-5.3-8.9c1-3.9,5-6.3,8.9-5.3c3.9,1,6.3,5,5.3,8.9       C523.3,380.1,519.3,382.4,515.4,381.4z"/><g><linearGradient id="u" x1="509.484" x2="523.56" y1="365.582" y2="365.582" gradientUnits="userSpaceOnUse"><stop offset="0" stop-color="#2c364f"/><stop offset=".993" stop-color="#1e2841"/></linearGradient><path fill="url(#u)" d="M514.2,371.8c-3.4-3.8-5-10.1-4.7-12.6c0.6-4.4,5.4-5.2,8.1-2c1.3,1.6,1.8,3.6,2.2,5.3l-1.9,0.5        c-0.4-1.5-0.8-3.3-1.8-4.5c-1.6-1.8-4.2-1.7-4.6,1c-0.3,2.1,1.3,7.8,4.2,11c2.1,2.4,5,3.7,7.8,3.6l0.1,2        C520,376.2,516.6,374.4,514.2,371.8z"/></g><g><linearGradient id="v" x1="305.452" x2="531.901" y1="301.622" y2="301.622" gradientUnits="userSpaceOnUse"><stop offset="0" stop-color="#2c364f"/><stop offset=".993" stop-color="#1e2841"/></linearGradient><path fill="url(#v)" d="M523.6,376l-0.1-2c2.9-0.1,5.6-2.2,6.3-4.8c1-3.9-2.2-7.6-4.6-10.3c-3-3.4-5.6-6.3-4.2-12        c6.2-36.4,7.7-50.2,3-62.9c-4.3-11.6-16.6-22-29.2-18.6c-17.3,4.6-20.5,27.3-29.5,40.5c-11.6,17-30,17.6-41.3-0.9        c-7.9-12.9-9.4-28.5-13.4-42.7c-9-31.7-28.9-42.2-59.1-24.5c-16.9,10-32.2,23.5-44.3,39l-1.6-1.2        c12.2-15.7,27.7-29.4,44.8-39.5c31.2-18.4,52.7-7.4,62,25.6c4,14.2,5.5,29.8,13.2,42.2c10.6,17.3,27.2,16.6,38,0.8        c9-13.2,12.3-36.4,30.7-41.4c13.7-3.7,27.1,7.4,31.6,19.8c5.3,14.3,2.8,30.6-2.9,64l0,0c-0.1,0.3-0.1,0.7-0.2,1.1l0,0        c-0.5,4.1,1.4,6.3,4,9.2c2.9,3.4,6.2,7.4,5,12.1C530.8,373.1,527.4,375.8,523.6,376z"/></g><g><path fill="#fee453" d="M364.9,331.8c-0.6-0.3,8.8,9.8,6.5,20c-2.3,10.3-14.9,23.2-14.1,36.1c0,0,32.3-0.8,41.9,2.7       c0,0,0-16.4,5.2-23.3c5.2-6.9,6.8-25.7,3.3-32.8C407.8,334.4,379.3,338.1,364.9,331.8z"/><path fill="#fff" d="M377.4 361c-.5 0-1-.4-1-1 0-.5.4-1 .9-1 .8-.1 11.6 1 20.2.6.5 0 1 .4 1.1.9 0 .6-.4 1-.9 1.1C389.4 362 376.4 360.9 377.4 361zM375 370.3c-.5 0-1-.4-1-1 0-.5.4-1 .9-1 .8-.1 11.5 1 20.2.6.5 0 1 .4 1.1.9 0 .6-.4 1-.9 1.1C387.2 371.3 374.9 370.3 375 370.3zM374.9 379.6c-.5 0-1-.4-1-1 0-.5.4-1 .9-1 .7-.1 9.1 1 15.8.6.6-.1 1 .4 1.1.9 0 .6-.4 1-.9 1.1C383.7 380.7 375.9 379.6 374.9 379.6z"/></g><g><linearGradient id="w" x1="544.827" x2="591.082" y1="372.638" y2="372.638" gradientUnits="userSpaceOnUse"><stop offset="0" stop-color="#2c364f"/><stop offset=".993" stop-color="#1e2841"/></linearGradient><path fill="url(#w)" d="M573.3,345.3c0,0-6.3,3.2-13.2,7.7c-4.5,2.9-15.3,0-15.3,0s0.6,37.8,21.1,46.9l25.2-16.1       C591.1,383.9,570,366.3,573.3,345.3z"/><path fill="#fff" d="M555.1 367.9c0-.6.4-1 .9-1.1 9.3-.6 11.5-3.4 12.2-3.6.5-.2 1.1.1 1.3.6.2.5 0 1-.5 1.2-.4.2-3.2 3.1-12.8 3.8C555.6 368.8 555.2 368.4 555.1 367.9zM559.3 376.8c0-.6.4-1 .9-1.1 9.3-.6 11.5-3.4 12.2-3.6.5-.2 1.1.1 1.3.6.2.5 0 1-.5 1.2-.4.2-3.2 3.1-12.8 3.8C559.8 377.7 559.3 377.3 559.3 376.8zM563.7 384.9c0-.6.4-1 .9-1.1 9.3-.6 11.5-3.4 12.2-3.6.5-.2 1.1.1 1.3.6.2.5 0 1-.5 1.2l-.1.1c-2.7 2.1-7 3.3-12.7 3.7C564.2 385.8 563.7 385.4 563.7 384.9z"/></g><g><linearGradient id="x" x1="-2775.727" x2="-2735.74" y1="-1019.022" y2="-1019.022" gradientTransform="rotate(-136.444 -923.275 -895.937)" gradientUnits="userSpaceOnUse"><stop offset="0" stop-color="#2c364f"/><stop offset=".993" stop-color="#1e2841"/></linearGradient><path fill="url(#x)" d="M300.1,469.9c0,0,5.9,1.7,12.9,3c4.6,0.8,9.6,9.1,9.6,9.1s22.1-24,14.7-41.9l-25.3-4.9       C312,435.2,314.7,458.8,300.1,469.9z"/><path fill="#fff" d="M324.3 467.1c-.2 0-.5-.1-.6-.2-6.2-5.1-9.1-4.7-9.7-5-.5-.2-.7-.8-.5-1.3.2-.4.7-.7 1.1-.5l.1 0c3 .3 6.4 2.1 10.3 5.3C325.6 465.9 325.2 467.1 324.3 467.1zM326.3 458.8c-6.2-5.1-9.1-4.7-9.7-5-.5-.2-.7-.8-.5-1.3.2-.4.7-.7 1.1-.5.2.1 4 0 10.3 5.3.4.4.5 1 .1 1.4C327.4 459.1 326.8 459.1 326.3 458.8zM328.4 451.1c-6.2-5.1-9.1-4.7-9.7-5-.5-.2-.7-.8-.5-1.3.2-.4.7-.7 1.1-.5.2.1 4 0 10.3 5.3.4.4.5 1 .1 1.4C329.5 451.4 328.8 451.4 328.4 451.1z"/></g><linearGradient id="y" x1="338.289" x2="340.813" y1="178" y2="127.016" gradientUnits="userSpaceOnUse"><stop offset="0" stop-color="#ebf0f6"/><stop offset=".993" stop-color="#deebf4"/></linearGradient><path fill="url(#y)" d="M371.8,146.1c0,0,21.1,0.5,22.4,4.2s-19.5,4.3-20.2,4.4s-85.8,1.9-88.7-1.4c-2.9-3.4,15.4-4.3,15.4-4.3     s1.9-10.1,7.7-10.9c5.8-0.9,9,3.4,9,3.4s-2.6-14.3,3.8-16c6.3-1.7,10,4.3,10,4.3s0.1-18.7,14.8-17.7c14.6,1.1,9.2,22.6,9.2,22.6     s8.1-2.7,13.4,0.8C373.8,139,371.8,146.1,371.8,146.1z"/><linearGradient id="z" x1="-1644.391" x2="-1643.893" y1="183.746" y2="154.352" gradientTransform="matrix(-1 0 0 1 -1067.34 0)" gradientUnits="userSpaceOnUse"><stop offset="0" stop-color="#ebf0f6"/><stop offset=".993" stop-color="#deebf4"/></linearGradient><path fill="url(#z)" d="M612.9,188.3c0,0-5-5.8-15-6.1c0,0-0.1-6.8-6.4-2.8c0,0,4-10.1-1.6-12.1c-5.6-1.9-12,4.3-12,4.3     s-6.5-22.1-20.9-13.3c-16.9,10.3-3.1,21.3-3.1,21.3s-10.4-0.8-12.2,3.9c-1.8,4.7,2.3,6.7,2.3,6.7S601,192.5,612.9,188.3z"/></svg>