<svg xmlns="http://www.w3.org/2000/svg" xmlns:xlink="http://www.w3.org/1999/xlink" data-name="Layer 2" viewBox="0 0 655.794 597.255"><defs><clipPath id="b"><path fill="none" d="M74.109 418.122s-14.303 8.99 0 21.024 41.246 4.414 54.89 19.243l1.037-7.766s-26.505-36.953-55.927-32.5Z"/></clipPath><clipPath id="c"><path fill="none" d="M116.52 373.068c-24.597-28.806-64.523 4.602-27.116 28.503 37.408 23.901 48.598 70.697 48.598 70.697l4.642.95c5.403-48.582-1.529-71.343-26.125-100.15Z"/></clipPath><clipPath id="d"><path fill="none" d="M544.17 247.238c.077-2.574.873.659.077-2.574 0 0-12.084-32.016-25.735-.304q-.432 1.324-.814 2.832s-3.236 24.796 11.248 19.915a23.178 23.178 0 0 0 9.68-6.035c11.042 2.058 12.152-9.524 12.152-9.524 2.333-8.698-6.608-4.31-6.608-4.31Z"/></clipPath><clipPath id="e"><path fill="none" d="M442.567 300.924c-1.427 12.444-11.083 23.416-22.547 25.085l-7.329 1.066a19.653 19.653 0 0 1-2.826.209 16.323 16.323 0 0 1-11.93-4.929c-3.648-3.722-5.59-9.107-5.468-15.162l.56-27.752h-9.402l-.556 27.562c-.173 8.602 2.723 16.39 8.152 21.931a25.87 25.87 0 0 0 18.644 7.75 29.134 29.134 0 0 0 4.18-.307l7.329-1.067a34.932 34.932 0 0 0 21.616-12.674 39.846 39.846 0 0 0 8.461-17.72Z"/></clipPath><clipPath id="g"><path fill="none" d="M567.07 377.784c-12.266-34.875-16.02 12.196-31.211 2.152s-23.84-4.951-23.777 10.91c.064 15.86-17.394 7.815-17.394 7.815-29.22-1.237-18.567 42.106-18.567 42.106l3.94 17.567s33.126 13.308 35.752.682c6.933-5.94-3.549-23.895 10.786-22.535 17.161 1.629 21.73-11.626 20.305-29.464-.93-11.64 28.778-4.745 20.165-29.233Z"/></clipPath><clipPath id="h"><path fill="none" d="M514.244 347.93c-28.554-23.481-7.387 18.73-25.584 18.005-18.198-.725-22.958 8.111-14.69 21.646 8.27 13.535-10.832 15.693-10.832 15.693-25.636 14.076 5.923 45.636 5.923 45.636l12.47 12.987s35.229-5.771 30.936-17.932c2.854-8.672-15.411-18.604-2.444-24.864 15.524-7.494 12.568-21.2 2.11-35.72-6.824-9.475 22.16-18.964 2.11-35.451Z"/></clipPath><radialGradient id="a" cx="295.892" cy="292.943" r="290.081" gradientUnits="userSpaceOnUse"><stop offset="0" stop-color="#ea2424"/><stop offset=".092" stop-color="#ea2727"/><stop offset=".159" stop-color="#eb3030"/><stop offset=".219" stop-color="#ed4040"/><stop offset=".274" stop-color="#ef5757"/><stop offset=".326" stop-color="#f27474"/><stop offset=".375" stop-color="#f59898"/><stop offset=".423" stop-color="#f9c2c2"/><stop offset=".469" stop-color="#fef2f2"/><stop offset=".48" stop-color="#fff"/></radialGradient><linearGradient id="f" x1="273.181" x2="305.111" y1="484.905" y2="243.519" xlink:href="#a"/></defs><path fill="#f1f2f2" d="M103.467 486.654s-96.728-62.461-43.67-140.096 90.701-24.413 112.366-125.69S237.971 18.864 383.7 43.83c91.35 15.649 51.123 115.525 157.93 140.671 47.554 11.197 101.397 86.282 48.273 192.027-52.02 103.548-486.435 110.126-486.435 110.126Z" opacity=".7"/><path fill="#ea2424" d="M74.109 418.122s-14.303 8.99 0 21.024 41.246 4.414 54.89 19.243l1.037-7.766s-26.505-36.953-55.927-32.5Z"/><path fill="#ea2424" d="M116.52 373.068c-24.597-28.806-64.523 4.602-27.116 28.503 37.408 23.901 48.598 70.697 48.598 70.697l4.642.95c5.403-48.582-1.529-71.343-26.125-100.15Z"/><path fill="#ea2424" d="M74.109 418.122s-14.303 8.99 0 21.024 41.246 4.414 54.89 19.243l1.037-7.766s-26.505-36.953-55.927-32.5Z"/><path fill="#352626" d="M117.247 436.391s-1.148 14.195-17.152 11.089l8.632 19.835 32.252-.248 3.101-10.89v-13.74Z" clip-path="url(#b)" opacity=".3"/><path fill="#352626" d="M98.894 442.222a149.687 149.687 0 0 1 31.142-14.965s10.191-5.023 4.58-26.3l21.758 37.112a60.234 60.234 0 0 1-4.086 16.206c-3.363 7.908-11.184 12.433-17.672 19.153l-6.488 6.72Z" clip-path="url(#c)" opacity=".3"/><path fill="#d1d3d4" d="m474.226 450.337-9.978 6.545L120.88 474.8s-39.845 6.43-11.353 29.04c28.492 22.61 87.876 66.602 143.805 49.636 40.743-12.36 147.315-54.996 202.19-77.24 17.38.132 48.351-1.536 58.817-14.338Z"/><path fill="#2d3538" d="M249.837 522.485c-10.373 3.787-25.049 2.97-32.778-1.826l-91.675-56.879c-7.729-4.795-5.586-11.754 4.785-15.54l245.66-89.7c10.373-3.787 25.048-2.97 32.778 1.827l91.673 56.879c7.732 4.796 5.589 11.754-4.783 15.541Z"/><path fill="#2d3538" d="M249.837 538.855c-10.373 3.787-25.049 2.97-32.778-1.827l-91.675-56.878c-7.729-4.796-5.586-11.754 4.785-15.542l245.66-89.698c10.373-3.787 25.048-2.97 32.778 1.826l91.673 56.879c7.732 4.796 5.589 11.754-4.783 15.542Z"/><path fill="#2d3538" d="m345.907 406.149 109.748 7.758 49.269 9.891v16.375l-124.193 16.709-60.151 25.245-199.701-7.328.127-16.52 224.901-52.13z"/><path fill="#fff" d="M263.924 502.118c-8.021 2.928-19.37 2.296-25.346-1.413l-70.89-43.983c-5.977-3.708-4.32-9.089 3.7-12.018l189.964-69.361c8.02-2.93 19.369-2.297 25.346 1.412l70.89 43.983c5.978 3.709 4.32 9.09-3.7 12.018Z"/><path fill="#2d3b3d" d="M541.628 334.352s-1.274 28.623-38.279 74.755l-.684-8.43s28.806-42.96 23.21-72.86Z"/><path fill="#2d3b3d" d="M523.215 312.147s-42.36 32.074-32.964 59.676l9.301 4.705s-1.363-29.024 35.022-37.633Z"/><path fill="#aab8bc" d="m498.087 314.984-12.746 11.765-2.926-27.65 4.851-10.145 10.821 26.03z"/><path fill="#aab8bc" d="m517.389 274.906-25.675 33.156 6.373 6.922 15.321-12.194 3.981-27.884z"/><path fill="#2d3b3d" d="M525.874 273.124s-19.884-5.399-11.748 33.38l2.367 17.422 25.135 10.426s16.282-49.838 8.044-59.823c0 0-3.673-6.376-23.798-1.405Z"/><path fill="#aab8bc" d="m526.983 267.61-1.79 8.906s9.072 6.641 16.435-2.462l1.646-12.956-9.17-7.947Z"/><path fill="#748184" d="M525.874 273.124s13.333-1.446 17.4-12.026l-16.632-.982Z" opacity=".8"/><path fill="#aab8bc" d="M544.17 247.238c.077-2.574.873.659.077-2.574 0 0-12.084-32.016-25.735-.304q-.432 1.324-.814 2.832s-3.236 24.796 11.248 19.915a23.178 23.178 0 0 0 9.68-6.035c11.042 2.058 12.152-9.524 12.152-9.524 2.333-8.698-6.608-4.31-6.608-4.31Z"/><path fill="#2d3b3d" d="M544.17 247.238s-13.295 12.579-26.631 9.046c-13.336-3.534-.64 3.257-.64 3.257l7.811 25.145s17.168 11.941 24.278 1.432 10.624-12.198 13.25-22.017c2.629-9.818-.732-10.717.769-13.009l1.5-2.292.514-8.702Z" clip-path="url(#d)"/><path fill="#2d3b3d" d="M517.698 247.192s13.054 8.449 26.471.046c0 0 14.014-21.27-7.432-20.863 0 0-15.425-2.39-19.039 20.817Z"/><path fill="#aab8bc" d="M541.628 274.054c-4.13 13.907-16.688 14.9-16.688 14.9-5.585-3.578.253-12.438.253-12.438l13.306-3.433Z"/><path fill="#757f82" d="m493.87 305.278 7.782 6.869 11.176-13.048-6.317-10.145-12.641 16.324z"/><path fill="#aab8bc" d="m549.672 274.529-23.798 32.474-27.787-14.06-4.217 7.624 32.004 23.103s24.538-21.844 25.292-31.677c0 0 3.968-9.493-1.494-17.464Z"/><path fill="#757f82" d="M482.415 299.099v-12.901l6.245-9.035-3.319 16.756-2.926 5.18z"/><path fill="#ea2424" d="M507.414 176.95c-.839 5.589-24.999 144.785-24.999 144.785l4.301 4.66 22.494-149.632Z"/><path fill="#aab8bc" d="m498.087 292.943-9.427-15.78-3.319 16.756 8.529 6.648 4.217-7.624zM452.354 196.641v34.345l9.478-5.775v-31.676l-9.478 3.106z"/><path fill="#aab8bc" d="M458.53 167.858c-7.949 0-15.528 6.444-16.93 14.392-1.402 7.948 3.906 14.391 11.854 14.391s15.527-6.443 16.929-14.391c1.401-7.948-3.906-14.392-11.854-14.392Zm-3.835 21.746a6.001 6.001 0 0 1-6.058-7.354 9.155 9.155 0 0 1 8.651-7.355 6.002 6.002 0 0 1 6.058 7.355 9.155 9.155 0 0 1-8.651 7.355Z"/><path fill="#6a7577" d="m452.354 215.977 9.478-10.78v15.67l-9.478-4.89z" opacity=".7"/><path fill="#aab8bc" d="M442.567 300.924c-1.427 12.444-11.083 23.416-22.547 25.085l-7.329 1.066a19.653 19.653 0 0 1-2.826.209 16.323 16.323 0 0 1-11.93-4.929c-3.648-3.722-5.59-9.107-5.468-15.162l.326-16.158-9.168-11.594-.556 27.562c-.173 8.602 2.723 16.39 8.152 21.931a25.87 25.87 0 0 0 18.644 7.75 29.134 29.134 0 0 0 4.18-.307l7.329-1.067a34.932 34.932 0 0 0 21.616-12.674 39.846 39.846 0 0 0 8.461-17.72Z"/><path fill="#ea2424" d="M464.26 221.503c6.065 3.13 11.065 10.603 11.167 16.692l1.158 68.918c.103 6.09-4.73 8.489-10.795 5.36l-58.104-29.98c-6.065-3.13-11.064-10.602-11.167-16.692l-1.159-68.918c-.102-6.09 4.732-8.489 10.796-5.36Z"/><path fill="#fff" d="m433.461 255.318-18.68-29.44.533 31.698c.048 2.801 2.347 6.238 5.136 7.678l26.725 13.789c2.79 1.44 5.013.336 4.966-2.465l-.533-31.7Z"/><path fill="#fff" d="M452.245 241.48c-.047-2.8-2.347-6.237-5.136-7.677l-26.725-13.789c-2.79-1.44-5.013-.336-4.965 2.465l18.68 29.441Z"/><path fill="#6a7577" d="M429.64 322.23s9.123-6.869 13.35.406l22.8-10.163s3.092-20.384-1.14-26.228-18.998-9.572-26.912-12.863c-7.914-3.292-39.903 1.725-34.978 5.418s7.332 20.16-.512 29.262Z" clip-path="url(#e)" opacity=".7"/><path fill="#aab8bc" d="m383.625 279.441 21.186 24.725-21.742 2.837.556-27.562z"/><path fill="#ea2424" d="M451.098 183.676a7.354 7.354 0 0 1-2.864-.552l.806-1.748-.403.874.398-.877a5.744 5.744 0 0 0 5.185-.544c2.842-1.797 6.302-7.083 6.65-22.06V79.027h1.925v79.764c-.296 12.77-2.85 20.734-7.588 23.691a7.67 7.67 0 0 1-4.11 1.194Z"/><path fill="#ea2424" d="m509.062 177.647-1.848.493c5.992-34.41-6.683-59.895-18.21-74.504a99.11 99.11 0 0 0-26.705-23.7l.992-1.817a101.449 101.449 0 0 1 27.337 24.235 92.814 92.814 0 0 1 16.283 31.029 96.059 96.059 0 0 1 2.15 44.264Z"/><path fill="#ea2424" d="M337.831 244.69c12.025 5.909 21.939 19.938 22.14 31.336l2.29 128.995c.203 11.398-9.382 15.846-21.407 9.938l-115.216-56.615c-12.025-5.909-21.939-19.94-22.14-31.336l-2.291-128.996c-.203-11.398 9.383-15.846 21.409-9.937Z" opacity=".8"/><path fill="url(#a)" d="M351.989 236.116c12.025 5.91 21.938 19.94 22.14 31.336l2.29 128.996c.203 11.398-9.382 15.846-21.408 9.937l-115.215-56.614c-12.025-5.91-21.94-19.94-22.141-31.336l-2.29-128.997c-.203-11.397 9.383-15.846 21.408-9.937Z" opacity=".5"/><path fill="#fff" d="M284.485 287.96c-15.247-7.761-27.46-.208-27.279 16.87l55.213 28.108c-.181-17.08-12.688-37.216-27.934-44.978ZM298.89 275.65c.096 9.042-6.37 13.04-14.44 8.932-8.074-4.11-14.694-14.77-14.79-23.812-.096-9.041 6.37-13.04 14.442-8.931 8.071 4.109 14.692 14.77 14.789 23.812ZM335.24 375.853c-1.024 5.33-6.796 7.233-12.891 4.25l-88.49-43.303c-6.095-2.984-10.205-9.723-9.181-15.053 1.024-5.33 6.796-7.233 12.89-4.25l88.49 43.303c6.096 2.983 10.207 9.722 9.182 15.053Z"/><path fill="#ea2424" d="M260.208 337.909a4.185 4.185 0 1 1-4.025-4.34 4.185 4.185 0 0 1 4.025 4.34ZM274.396 344.742a4.185 4.185 0 1 1-4.025-4.34 4.185 4.185 0 0 1 4.025 4.34ZM287.634 350.783a4.185 4.185 0 1 1-4.026-4.34 4.185 4.185 0 0 1 4.026 4.34ZM300.074 356.23a4.185 4.185 0 1 1-4.025-4.339 4.186 4.186 0 0 1 4.025 4.34Z"/><path fill="url(#f)" d="m225.638 358.344 30.313 69.709 38.058 20.917 52.436-31.95-120.807-58.676z" opacity=".7"/><path fill="#ea2424" d="M567.07 377.784c-12.266-34.875-16.02 12.196-31.211 2.152s-23.84-4.951-23.777 10.91c.064 15.86-17.394 7.815-17.394 7.815-29.22-1.237-18.567 42.106-18.567 42.106l3.94 17.567s33.126 13.308 35.752.682c6.933-5.94-3.549-23.895 10.786-22.535 17.161 1.629 21.73-11.626 20.305-29.464-.93-11.64 28.778-4.745 20.165-29.233Z"/><g clip-path="url(#g)"><path fill="#fff" d="M497.314 432.581q1.133-1.419 2.35-2.879a195.31 195.31 0 0 1 67.628-51.44l-.445-.957a201.9 201.9 0 0 0-41.048 25.371q-6.728 5.387-12.9 11.312a74.824 74.824 0 0 0-.626 1.978l-1.013-.297.038-.13q-6.594 6.477-12.445 13.487a162.942 162.942 0 0 0-14.388 20.08c.19.832.325 1.286.33 1.304l-1.261.385-.024-.08c-2.668 4.575-3.905 7.348-3.932 7.406l.967.425c.05-.116 4.848-10.87 16.179-25.222l-.16-.552c.044-.012.304-.086.75-.19Z"/><path fill="#fff" d="M532.835 378.296a856.932 856.932 0 0 1 4.02-3.453l.185.205s.73-.662 1.452-1.331c.363-.337.725-.676.992-.934.467-.452.805-.778.451-1.177-.346-.392-.736-.084-1.08.189-.255.201-.647.524-1.165.959-1.174.984-3.04 2.58-5.545 4.743-12.378 10.686-20.237 36.027-20.846 38.043q.794-.78 1.6-1.553c2.099-6.384 9.355-26.557 19.936-35.691Z"/><path fill="#fff" d="M512.273 415.966c.012-.042.226-.761.626-1.978q-.805.771-1.6 1.552l-.04.13ZM507.908 431.667a39.905 39.905 0 0 0-10.594.914l-.59.743.133.462c.188-.054 18.968-5.278 31.465 7.736l.761-.731c-6.764-7.046-15.249-8.85-21.175-9.124ZM496.565 432.772l.159.552.59-.743c-.446.105-.706.179-.75.191ZM483.26 429.457c.884-11.59 4.95-29.288 19.3-47.773l-1.041-.81c-14.572 18.771-18.69 36.762-19.58 48.55-.927 12.3 1.304 20.378 1.571 21.291q.45-.772.955-1.609a67.198 67.198 0 0 1-1.205-19.649Z"/><path fill="#fff" d="M484.796 450.41c-.006-.019-.14-.472-.331-1.304q-.506.838-.955 1.61l.024.078Z"/></g><g clip-path="url(#g)"><path fill="#352626" d="M526.573 376.003s-19.384 21.36 8.264 59.3l-34.612 51.656-31.658-1.395s6.06-81.694 3.557-97.983c-2.504-16.289-2.502-27.154 5.94-38.811 8.442-11.658 10.342-12.926 23.638-14.93a227.444 227.444 0 0 1 28.07-2.085Z" opacity=".3"/></g><path fill="#ea2424" d="M514.244 347.93c-28.554-23.481-7.387 18.73-25.584 18.005-18.198-.725-22.958 8.111-14.69 21.646 8.27 13.535-10.832 15.693-10.832 15.693-25.636 14.076 5.923 45.636 5.923 45.636l12.47 12.987s35.229-5.771 30.936-17.932c2.854-8.672-15.411-18.604-2.444-24.864 15.524-7.494 12.568-21.2 2.11-35.72-6.824-9.475 22.16-18.964 2.11-35.451Z"/><g clip-path="url(#h)"><path fill="#fff" d="M482.952 430.932q.234-1.8.518-3.68a195.315 195.315 0 0 1 31.212-79.029l-.876-.588a201.887 201.887 0 0 0-21.975 42.963q-2.965 8.092-5.177 16.357c.288 1.248.478 1.973.489 2.016l-1.02.271-.034-.13a184.823 184.823 0 0 0-3.662 17.982 162.949 162.949 0 0 0-1.909 24.629c.594.612.944.93.959.944l-.88.982-.062-.055c.087 5.295.464 8.308.472 8.371l1.047-.137c-.017-.125-1.482-11.81.778-29.955l-.423-.39c.031-.032.215-.23.543-.55Z"/><path fill="#fff" d="M485.223 366.098a822.546 822.546 0 0 1 1.65-5.035l.266.078s.28-.943.552-1.89c.136-.477.27-.953.365-1.313.166-.628.286-1.082-.223-1.24-.5-.156-.673.31-.827.72-.113.305-.282.784-.5 1.424a579.751 579.751 0 0 0-2.287 6.93c-5.054 15.552 1.348 41.3 1.87 43.34q.276-1.08.565-2.157c-1.511-6.55-5.752-27.563-1.43-40.857Z"/><path fill="#fff" d="M487.143 408.971a75.317 75.317 0 0 1-.489-2.016q-.289 1.077-.565 2.156c.02.076.03.122.034.131ZM491.541 424.663a39.926 39.926 0 0 0-8.59 6.27l-.12.94.354.326c.133-.143 13.492-14.339 30.923-9.678l.272-1.02c-9.435-2.524-17.627.327-22.839 3.162Z"/><path fill="#fff" d="m482.41 431.484.422.39q.058-.468.12-.942c-.328.32-.512.519-.543.552ZM469.311 435.538c-5.247-10.373-10.934-27.618-8.23-50.863l-1.31-.152c-2.745 23.603 3.05 41.126 8.393 51.67 5.577 11.003 11.67 16.758 12.371 17.4q-.014-.893-.017-1.87a67.219 67.219 0 0 1-11.207-16.185Z"/><path fill="#fff" d="M481.477 452.667a22.85 22.85 0 0 1-.959-.944q.002.978.017 1.87l.061.056Z"/></g><path fill="#e53e3e" d="m200.795 474.286.898 11.278s15.18-.973 20.861-7.873H210.64l-4.692-9.146Z"/><path fill="#294754" d="M152.339 399.713s-.985 22.779 5.788 27.104c6.774 4.325 16.537 3.356 21.267-3.127 4.73-6.484-12.454-14.583-12.454-14.583Z"/><path fill="#294754" d="m186.454 403.274 14.34 18.737s3.329 6.248-2.827 8.65c-6.155 2.403-27.37.141-35.263-21.554Z"/><path fill="#aab8bc" d="m194.077 378.097 4.99 5.559s4.729 4.283 14.189-5.405 21.073-21.514 21.073-21.514-3.263-7.794-10.624-3.216c-7.36 4.577-24.672 17.671-29.628 24.576Z"/><path fill="#aab8bc" d="M200.667 363.97s5.884 8.234 5.23 12.053l-5.634 3.947-10.275-16.295Z"/><path fill="#65767a" d="M203.553 368.61s4.133 3.312-.176 9.178c0 0 6.898-5.313 3.487-11.942Z"/><path fill="#aab8bc" d="M236.855 355.253a780.647 780.647 0 0 1 8.14-3.896c-.446-3.5-6.864-7.178-6.864-7.178 7.914-1.264 8.488-11.452 8.488-11.452-1.785 3.51-8.491 6.96-12.112 8.62a2.33 2.33 0 0 0-2.355 1.022l-6.381 10.138 2.64 3.498-5.857 7.127s4.498-2.443 7.948-4.357l.858 1.136a25.967 25.967 0 0 0 5.495-4.658ZM134.6 364.417l-4.711 8.926s-3.928 14.63 4.727 14.238c8.655-.392 18.342-5.835 18.342-5.835l-2.888-10.889Z"/><path fill="#748184" d="M150.07 370.857s-1.31 11.467-15.454 16.724l19.496-4.798-.76-2.336 9.352-14.972Z"/><path fill="#993737" d="M150.377 335.52s-15.203 27-15.778 28.897c0 0 10.271 10.577 17.67 5.35l5.716-10.576Z"/><path fill="#aab8bc" d="m167.065 320.893-1.371 12.834a17.143 17.143 0 0 0 15.902 4.814l.707-14.773Z"/><path fill="#aab8bc" d="M190.966 292.943s5.829 25.247-3.835 32.288c0 0-7.046 4.43-11.832-1.846l-4.788-6.275Z"/><path fill="#294754" d="M158.127 309.92s-4.55-21.459 16.071-26.55c0 0 18.916-12.73 18.322-.814-.595 11.916-3.27 14.119-6.418 21.199 0 0-10.656 2.027-6.412 11.229 0 0-1.814 22.576-21.563-5.065Z"/><path fill="#aab8bc" d="M186.102 303.755s-11.326-5.707-6.412 11.229Z"/><path fill="#294754" d="M178.862 311.616s.097 8.003 6.776-1.073c0 0-7.068 12.84-10.34 12.842-14.625.013-17.17-13.466-17.17-13.466Z"/><path fill="#748184" d="M166.94 322.056s6.772 10.38 14.957 10.199l.24-5.027s-10.84.276-15.072-6.334Z"/><path fill="#e53e3e" d="M165.694 333.727s-16.486-7.584-16.893 6.998c-.406 14.583 2.054 38.965 2.054 38.965s23.286 24.922 34.122 4.058c10.835-20.864 16.549-46.565-3.38-45.207-13.106.893-15.903-4.814-15.903-4.814Z"/><path fill="#e53e3e" d="M189.358 339.882s-10.578 3.963-6.882 22.73l11.6 15.485s10.227-7.428 5.446-17.986c-4.781-10.558-6.02-18.966-10.164-20.23Z"/><path fill="#993737" d="M190.021 372.684s-12.877-11.586-8.398-21.019c0 0-7.542 14.6 5.12 28.538Z"/><path fill="#e53e3e" d="m150.855 379.69 1.484 20.023s12.876 18.512 34.115 3.561l.29-23.07Z"/><path fill="#294754" d="m156.374 425.082 6.33 14.756s-3.09 20.919 0 22.059l6.095 1.996 7.686-24.055s1.973-7.705 0-13.246l13.503 10.316s7.295 33.91 10.807 37.378c0 0 7.529 5.113 9.845-3.398 0 0-.382-42.149-9.845-48.877Z"/><path fill="#e53e3e" d="m162.704 461.897-.79 10.927s9.792 2.975 16.54-4.28l-9.655-4.651Z"/><path fill="#23272b" d="M161.914 474.37s31.255 13.034 36.667 12.25c5.412-.784 56.662-17.417 59.303-30.36 2.641-12.943-25.614-8.117-35.33-6.84-9.715 1.277-52.706 17.02-60.64 24.95Z" opacity=".3"/></svg>